<svg width="193" height="192" viewBox="0 0 193 192" fill="none" xmlns="http://www.w3.org/2000/svg">
<path d="M69.2727 113.415L69.5707 118.82C39.878 118.82 33.2405 86.9439 33.2405 57.2491L18.4484 45.3821C18.4484 39.5705 1.43467 42.334 3.14145 37.0914C10.1447 15.5654 30.3823 0 54.2638 0H138.736C168.429 0 192.5 24.0728 192.5 53.7676V111.017C192.5 140.711 98.9654 113.415 69.2862 113.415H69.2727Z" fill="#1D2756"/>
<mask id="mask0_3715_96586" style="mask-type:luminance" maskUnits="userSpaceOnUse" x="0" y="0" width="193" height="192">
<path d="M138.723 0H54.2638C24.5709 0 0.5 24.0726 0.5 53.7676V138.232C0.5 167.927 24.5709 192 54.2638 192H138.723C168.416 192 192.486 167.927 192.486 138.232V53.7676C192.486 24.0726 168.416 0 138.723 0Z" fill="white"/>
</mask>
<g mask="url(#mask0_3715_96586)">
<path d="M120.3 201.794C112.159 201.605 82.7373 200.02 51.8661 198.245C20.3312 196.457 -12.7208 194.479 -26.1855 193.639C-39.4741 192.826 -58.8176 183.289 -55.1331 170.42C-47.0056 141.985 -6.46262 52.9141 -3.65861 45.7749C2.1255 30.9817 10.8355 25.5901 21.3336 33.7182C35.2182 44.4609 43.8334 62.8846 43.8334 62.8846C43.8334 62.8846 65.2902 64.9708 84.3628 67.8021C97.3398 69.7394 105.427 76.2961 110.249 84.5732C111.143 86.0905 111.915 87.6754 112.593 89.3011C123.66 115.799 137.355 153.066 142.732 166.153C156.238 199.126 129.552 201.998 120.3 201.794Z" fill="#FFD833"/>
<path d="M40.4875 103.674C40.176 106.803 34.7982 105.489 31.1815 104.961C27.5647 104.432 21.9567 105.421 22.7017 101.832C23.5687 97.6865 28.5806 97.3479 32.1974 97.8626C35.8142 98.3774 40.7584 100.965 40.4875 103.674Z" fill="#FFB624"/>
<path d="M65.412 106.559C63.8678 109.878 70.6001 110.176 74.2169 110.704C77.8337 111.233 81.6265 113.373 82.2496 109.621C82.8727 105.869 79.4863 103.593 75.8966 102.875C71.7786 102.049 67.1188 102.916 65.4256 106.559H65.412Z" fill="#FFB624"/>
<path d="M60.0072 116.624C58.314 118.02 55.5371 118.778 50.9856 118.169C49.1569 117.925 47.6263 117.546 46.3936 117.031C41.3274 115.026 41.0971 111.098 41.7744 108.348C42.2756 106.302 43.7657 105.11 45.9872 106.14C47.8159 106.98 49.9155 107.657 52.557 107.874C54.9682 108.063 56.3905 107.982 58.0295 107.373C60.4407 106.479 62.0256 107.576 62.2965 109.459C62.6216 111.748 62.2965 114.769 60.0072 116.638V116.624Z" fill="#0F1647"/>
<path d="M60.0072 116.625C58.314 118.02 55.5371 118.779 50.9856 118.169C49.1569 117.925 47.6262 117.546 46.3936 117.031C46.3936 117.031 47.7888 113.089 51.9609 112.493C56.1602 111.897 59.9124 116.395 59.9124 116.395L60.0072 116.625Z" fill="#FF7E3B"/>
<path d="M35.4349 93.5684C35.4349 93.5684 41.1242 96.5214 43.0342 98.1198" stroke="#0F1647" stroke-width="3.21942" stroke-miterlimit="10" stroke-linecap="round"/>
<path d="M71.7516 97.646C71.7516 97.646 65.2902 99.2309 63.326 100.355" stroke="#0F1647" stroke-width="3.21942" stroke-miterlimit="10" stroke-linecap="round"/>
<path d="M120.3 201.794C112.159 201.605 72.3612 198.096 41.49 196.321C45.039 158.485 111.915 87.6753 112.593 89.301C123.66 115.799 137.355 153.066 142.732 166.152C156.238 199.126 129.552 201.998 120.3 201.794Z" fill="#FFC33E"/>
<path d="M210.692 117.749C200.384 108.443 189.168 104.243 175.188 113.347C174.132 114.038 174.619 102.347 169.756 89.7751C163.444 73.4511 134.374 62.9929 107.364 94.652C89.2936 115.839 61.836 151.793 57.0949 192.352C55.7268 204.03 61.1993 235.228 99.5343 228.008C136.23 221.099 167.088 215.287 201.508 208.798C217.993 205.696 244.069 199.098 248.093 179.51C252.522 158.011 228.871 134.155 210.692 117.736V117.749Z" fill="#A4B5FF"/>
<path d="M153.826 141.863C160.238 141.863 165.435 136.665 165.435 130.253C165.435 123.841 160.238 118.644 153.826 118.644C147.415 118.644 142.218 123.841 142.218 130.253C142.218 136.665 147.415 141.863 153.826 141.863Z" fill="#839BFF"/>
<path d="M113.568 146.631C119.979 146.631 125.177 141.434 125.177 135.022C125.177 128.61 119.979 123.412 113.568 123.412C107.156 123.412 101.959 128.61 101.959 135.022C101.959 141.434 107.156 146.631 113.568 146.631Z" fill="#839BFF"/>
<path d="M124.496 128.428C126.325 128.002 127.328 125.595 126.736 123.052C126.143 120.509 124.181 118.793 122.352 119.219C120.523 119.645 119.521 122.052 120.113 124.595C120.705 127.137 122.668 128.854 124.496 128.428Z" fill="#0F1647"/>
<path d="M139.554 125.76C141.411 125.48 142.6 123.16 142.211 120.578C141.821 117.997 140 116.131 138.144 116.411C136.287 116.691 135.097 119.011 135.487 121.593C135.876 124.175 137.697 126.04 139.554 125.76Z" fill="#0F1647"/>
<path d="M118.756 134.249C118.756 134.249 132.288 143.731 147.92 129.928" stroke="#0F1647" stroke-width="2.9468" stroke-miterlimit="10" stroke-linecap="round"/>
</g>
<path d="M128 66.9879C128.908 62.6122 131.17 57.4509 133.026 54.7821C135.951 50.5419 140.909 46.6133 146.856 47.4533C152.274 48.2119 149.877 53.739 147.195 56.0284C145.677 57.3289 142.995 58.2501 142.034 55.771C141.573 54.5654 141.885 53.2107 142.386 52.0186C144.093 47.9951 147.845 44.771 151.597 42.6983C155.674 40.4495 162.623 39.1084 167.283 39" stroke="#8390F5" stroke-width="1.29815" stroke-miterlimit="10"/>
<path d="M122.093 44.3611L112.76 46.5014C112.164 46.6369 111.798 47.2193 111.92 47.8154L112.286 49.6305C112.408 50.2536 113.017 50.6329 113.64 50.4974L122.865 48.3301C123.434 48.1946 123.8 47.6528 123.719 47.0839L123.461 45.3094C123.366 44.6591 122.743 44.2392 122.107 44.3882L122.093 44.3611Z" fill="#FFDE52"/>
<path d="M104.822 29.3241L102.411 33.415C102.045 34.0245 102.343 34.8102 103.02 35.0405L105.323 35.8261C105.865 36.0158 106.461 35.7449 106.705 35.2166L108.615 30.9361C108.886 30.3265 108.574 29.6221 107.938 29.4189L106.136 28.8364C105.635 28.6739 105.093 28.8771 104.836 29.3376L104.822 29.3241Z" fill="#8390F5"/>
<path d="M128.866 19.3128L135.544 25.1104C135.964 25.4761 136.587 25.4761 137.007 25.1104L138.849 23.5255C139.364 23.0785 139.364 22.2793 138.849 21.8323L132.049 15.8856C131.602 15.4928 130.939 15.5199 130.519 15.9398L128.798 17.6737C128.338 18.1343 128.365 18.8793 128.852 19.2992L128.866 19.3128Z" fill="#8390F5"/>
<path d="M179.837 68.4766L173.863 62.5299C173.43 62.0965 172.739 62.0965 172.305 62.5299L170.219 64.5347C169.813 64.914 169.759 65.5371 170.084 65.9842L175.245 73.177C175.665 73.7595 176.505 73.8001 176.992 73.2719L179.891 70.0208C180.284 69.5738 180.27 68.9101 179.85 68.4901L179.837 68.4766Z" fill="#BBC5FF"/>
<path d="M43.4015 32.5611L51.5155 28.3213C52.1657 27.9826 52.3147 27.1292 51.8271 26.5874L49.9713 24.5013C49.6191 24.0949 49.0231 24.0137 48.5625 24.2846L40.8142 28.9986C40.2047 29.3643 40.0963 30.1906 40.5704 30.7189L42.074 32.3309C42.4127 32.6966 42.9681 32.7914 43.4151 32.5611H43.4015Z" fill="#FFDE52"/>
<path d="M67.7125 50.2378L63.9874 47.1493C63.6352 46.8513 63.1205 46.8106 62.7141 47.0409C62.0503 47.4202 61.9555 48.3549 62.538 48.8561L66.1818 52.0258C66.6153 52.4051 67.2655 52.3916 67.6854 51.9987L67.7667 51.9175C68.2544 51.4569 68.2273 50.6712 67.7125 50.2378Z" fill="#BBC5FF"/>
</svg>
