<svg width=auto height=auto viewBox="0 0 107 116" fill="none" xmlns="http://www.w3.org/2000/svg">
<g id="&#8;illust_error">
<path id="Vector" d="M13.5533 111.428L0.619482 53.0434C0.0256281 50.3863 1.70333 47.753 4.36706 47.1666L73.9012 31.7635C76.5583 31.1697 79.1916 32.8474 79.778 35.5111L95.4289 106.155C96.091 109.142 93.8912 112.017 90.826 112.144L18.5748 115.287C16.1905 115.393 14.0642 113.769 13.5533 111.428Z" fill="#E4E9F1"/>
<path id="Vector_2" d="M46.5637 71.6162L48.9233 76.7888" stroke="#677389" stroke-width="4.5" stroke-miterlimit="10" stroke-linecap="round"/>
<path id="Vector_3" d="M46.0322 88.3006L68.3859 86.3455" stroke="#677389" stroke-width="4" stroke-miterlimit="10" stroke-linecap="round"/>
<path id="Vector_4" d="M57.6621 67.2539L60.0217 72.4265" stroke="#677389" stroke-width="4.5" stroke-miterlimit="10" stroke-linecap="round"/>
<path id="Vector_5" d="M80.8715 6.80064C83.3721 3.02149 88.7057 3.38458 92.5587 4.68047C97.1741 6.23903 101.69 9.97581 101.822 15.1371C101.952 20.1753 97.7895 22.8053 93.143 22.1713C88.7693 21.5767 84.4267 20.1739 80.838 17.6005C80.1131 17.0809 79.347 16.2016 79.7623 15.4373C80.015 14.9756 80.5877 14.8099 81.1079 14.707C87.8515 13.417 94.4252 16.7277 99.2334 21.2541C102.01 23.8671 100.794 26.5929 97.2859 27.5092C92.9803 28.6314 88.2318 28.0853 84.266 26.003C83.0731 25.3792 84.0359 24.5724 84.9793 24.4564C88.4574 24.0106 94.1627 26.6185 95.5378 29.9898C96.3663 32.0184 95.1008 34.8858 92.8921 34.8267" stroke="#677389" stroke-width="2" stroke-miterlimit="10" stroke-linecap="round"/>
</g>
</svg>
