<svg width="84" height="68" viewBox="0 0 84 68" fill="none" xmlns="http://www.w3.org/2000/svg">
<g id="Group 20">
<path id="Vector" d="M57.5911 55.9529C58.4389 59.075 60.0309 66.0945 57.8599 67.4798C55.2134 69.1753 49.7239 65.9498 45.7541 63.1379C41.8876 64.4921 37.618 65.2055 33.1416 65.2055C14.8329 65.2055 0.00817871 53.265 0.00817871 34.9563C0.00817871 16.6476 14.8226 3.74573 33.1416 3.74573C51.4607 3.74573 66.2441 16.6786 66.2441 34.9563C66.2441 43.5679 62.9876 50.7632 57.6015 55.9426L57.5911 55.9529Z" fill="#E7EBF2"/>
<path id="Vector_2" d="M64.342 36.569C74.682 36.569 83.0642 28.409 83.0642 18.3431C83.0642 8.27712 74.682 0.117065 64.342 0.117065C54.002 0.117065 45.6198 8.27712 45.6198 18.3431C45.6198 28.409 54.002 36.569 64.342 36.569Z" fill="#B6BFCE"/>
<path id="Vector_3" d="M57.0433 20.4416C58.2024 20.4416 59.142 19.502 59.142 18.343C59.142 17.184 58.2024 16.2444 57.0433 16.2444C55.8843 16.2444 54.9447 17.184 54.9447 18.343C54.9447 19.502 55.8843 20.4416 57.0433 20.4416Z" fill="url(#paint0_linear_5025_21718)"/>
<path id="Vector_4" d="M64.342 20.4416C65.5011 20.4416 66.4407 19.502 66.4407 18.343C66.4407 17.184 65.5011 16.2444 64.342 16.2444C63.183 16.2444 62.2434 17.184 62.2434 18.343C62.2434 19.502 63.183 20.4416 64.342 20.4416Z" fill="url(#paint1_linear_5025_21718)"/>
<path id="Vector_5" d="M71.6409 20.4416C72.7999 20.4416 73.7395 19.502 73.7395 18.343C73.7395 17.184 72.7999 16.2444 71.6409 16.2444C70.4818 16.2444 69.5422 17.184 69.5422 18.343C69.5422 19.502 70.4818 20.4416 71.6409 20.4416Z" fill="url(#paint2_linear_5025_21718)"/>
<path id="Vector_6" d="M23.4859 36.5483C24.7592 36.5483 25.7913 35.1181 25.7913 33.3539C25.7913 31.5896 24.7592 30.1594 23.4859 30.1594C22.2127 30.1594 21.1805 31.5896 21.1805 33.3539C21.1805 35.1181 22.2127 36.5483 23.4859 36.5483Z" fill="#ADB6C4"/>
<path id="Vector_7" d="M35.2611 36.5483C36.5343 36.5483 37.5665 35.1181 37.5665 33.3539C37.5665 31.5896 36.5343 30.1594 35.2611 30.1594C33.9878 30.1594 32.9557 31.5896 32.9557 33.3539C32.9557 35.1181 33.9878 36.5483 35.2611 36.5483Z" fill="#ADB6C4"/>
<path id="Vector_8" d="M36.9669 44.6017C36.9669 44.6017 36.9049 44.6017 36.8636 44.6017L25.3883 43.6092C24.768 43.5575 24.3028 43.0096 24.3545 42.379C24.4062 41.7484 24.9541 41.2728 25.5847 41.3452L37.06 42.3376C37.6803 42.3893 38.1455 42.9372 38.0938 43.5679C38.0421 44.1571 37.5459 44.6017 36.9669 44.6017Z" fill="#ADB6C4"/>
</g>
<defs>
<linearGradient id="paint0_linear_5025_21718" x1="106.521" y1="-2.34343" x2="59.2764" y2="17.4126" gradientUnits="userSpaceOnUse">
<stop stop-color="white" stop-opacity="0"/>
<stop offset="1" stop-color="white"/>
</linearGradient>
<linearGradient id="paint1_linear_5025_21718" x1="108.062" y1="0.0653329" x2="60.8064" y2="19.8213" gradientUnits="userSpaceOnUse">
<stop stop-color="white" stop-opacity="0"/>
<stop offset="1" stop-color="white"/>
</linearGradient>
<linearGradient id="paint2_linear_5025_21718" x1="109.592" y1="2.4741" x2="62.347" y2="22.2302" gradientUnits="userSpaceOnUse">
<stop stop-color="white" stop-opacity="0"/>
<stop offset="1" stop-color="white"/>
</linearGradient>
</defs>
</svg>
