<svg width="184" height="86" viewBox="0 0 184 86" fill="none" xmlns="http://www.w3.org/2000/svg">
<g id="&#235;&#160;&#136;&#236;&#157;&#180;&#236;&#150;&#180; 1">
<g id="Group">
<path id="Vector" d="M169.967 68.7904H82.1553C80.6348 68.7904 79.4146 67.5735 79.4146 66.0787V2.71176C79.4146 1.20735 80.6445 0 82.1553 0H181.259C182.964 0 184.261 1.52357 183.961 3.19086L172.669 66.5482C172.436 67.8418 171.293 68.7904 169.967 68.7904Z" fill="white"/>
<path id="Vector_2" d="M14.033 17.2096H103.287C104.808 17.2096 106.028 18.4265 106.028 19.9213V83.2787C106.028 84.7831 104.798 85.9904 103.287 85.9904H2.75027C1.04576 85.9904 -0.251996 84.4669 0.0482307 82.7996L11.3309 19.4518C11.5634 18.1582 12.7062 17.2096 14.033 17.2096Z" fill="white"/>
<g id="Group_2">
<path id="Vector_3" d="M20.415 34.4192H32.6662C38.2349 34.4192 42.1863 38.2808 42.1863 43.7426C42.1863 45.8507 41.0725 48.2941 39.4455 49.9902C39.9104 50.2681 40.3752 50.5364 40.7433 50.8143C43.3 52.4624 45.1111 55.7778 45.1111 58.8537C45.1111 64.6413 41.1694 68.7712 35.591 68.7712H20.415V34.4096V34.4192ZM32.2498 48.5624C34.6613 48.4666 36.2399 46.7706 36.2399 44.2026C36.2399 41.3567 34.5644 39.5169 31.9205 39.5169H26.4002V48.5624H32.2498ZM34.6613 63.6256C37.402 63.6256 39.1647 61.7379 39.1647 58.8441C39.1647 55.7203 37.402 53.6506 34.6613 53.6506H26.4002V63.616H34.6613V63.6256Z" fill="#292C45"/>
<path id="Vector_4" d="M56.936 34.5054V68.8192H51.0283V34.5054H56.936Z" fill="#292C45"/>
<path id="Vector_5" d="M75.5405 64.5647C80.0148 64.5647 82.1261 62.5237 82.1261 59.5245C82.1261 52.3857 64.4321 55.5287 64.4321 43.1198C64.4321 37.083 69.3326 33.413 76.2572 33.4609C80.5862 33.4609 85.4867 35.9811 87.6948 41.8741L82.2133 43.8289C80.7218 39.9289 78.32 38.7407 76.2087 38.6928C72.6545 38.6928 70.6303 40.5518 70.6303 43.1198C70.6303 50.1627 88.2759 47.7288 88.2759 59.5724C88.2759 65.657 83.4239 69.8445 75.4921 69.7965C70.2042 69.7965 65.8751 66.7015 62.8535 61.6134L67.8993 58.7579C70.2042 63.089 72.9934 64.5647 75.5405 64.5647Z" fill="#292C45"/>
</g>
<g id="Group_3">
<path id="Vector_6" d="M136.245 17.2671V51.5808H130.337V17.2671H136.245Z" fill="#292C45"/>
<path id="Vector_7" d="M102.91 17.2671V51.5808H97.002V17.2671H102.91Z" fill="#292C45"/>
<path id="Vector_8" d="M167.129 22.3456H157.706V51.6H151.672V22.3456H142.152V17.2479H167.129V22.3456Z" fill="#292C45"/>
<path id="Vector_9" d="M117.35 17.2671L103.394 34.4767L117.301 51.6192H124.381L110.464 34.4767L124.42 17.2671H117.35Z" fill="#292C45"/>
</g>
</g>
</g>
</svg>
