<svg width="141" height="67" viewBox="0 0 141 67" fill="none" xmlns="http://www.w3.org/2000/svg">
<g id="biskit_signature_mono">
<g id="Union">
<path d="M27.7805 34.0994C27.7805 31.9153 26.4966 30.5034 24.4707 30.5034H20.2407V37.4454H24.7231C26.5709 37.3718 27.7805 36.0702 27.7805 34.0994Z" fill="#0C1142"/>
<path d="M26.5709 41.3576H20.2407V49.0055H26.5709C28.6712 49.0055 30.0217 47.5568 30.0217 45.3359C30.0217 42.9386 28.6712 41.3502 26.5709 41.3502V41.3576Z" fill="#0C1142"/>
<path fill-rule="evenodd" clip-rule="evenodd" d="M62.9565 0.176514H138.896C140.202 0.176514 141.197 1.34578 140.967 2.62533L132.306 51.2558C132.128 52.2485 131.26 52.9765 130.236 52.9765H81.2495V64.0954C81.2495 65.2426 80.3144 66.1765 79.1493 66.1765H2.10369C0.797575 66.1765 -0.196733 65.0072 0.0331827 63.7277L8.68626 15.0973C8.86436 14.1045 9.73257 13.3765 10.7568 13.3765H60.8562V2.25764C60.8562 1.11046 61.7913 0.176514 62.9565 0.176514ZM15.6546 52.9545H27.2833V52.9471C31.5579 52.9471 34.5783 49.7776 34.5783 45.3359C34.5783 42.9754 33.1906 40.431 31.2314 39.1662C30.9495 38.9529 30.5933 38.747 30.2371 38.5337C31.4838 37.2321 32.3371 35.3569 32.3371 33.7391C32.3371 29.5474 29.3094 26.5838 25.0423 26.5838H15.6546V52.9545ZM39.1052 52.9839H43.632V26.6501H39.1052V52.9839ZM48.1663 47.4538C50.4816 51.3587 53.799 53.734 57.8508 53.734V53.7266C63.9287 53.7634 67.6466 50.5498 67.6466 45.8802C67.6466 40.7483 63.3364 39.1093 59.5829 37.6822C56.6886 36.5816 54.1255 35.607 54.1255 33.2537C54.1255 31.2829 55.6763 29.8563 58.4 29.8563C60.0177 29.893 61.8582 30.8049 63.001 33.7979L67.2013 32.3051C65.5093 27.7825 61.7543 25.8485 58.4371 25.8485C53.131 25.8117 49.3759 28.6282 49.3759 33.2611C49.3759 38.6766 53.7604 40.2324 57.5428 41.5746C60.4118 42.5926 62.9342 43.4877 62.9342 45.8507C62.9342 48.1524 61.3164 49.7188 57.8878 49.7188C55.9361 49.7188 53.799 48.5863 52.0327 45.2624L48.1663 47.4538ZM74.333 39.7545H78.8597V13.428H74.333V39.7545ZM89.895 39.7839H95.3124L84.6556 26.6207L95.3495 13.4133H89.9321L79.2382 26.6207L89.895 39.7839ZM99.8763 39.7545H104.403V13.428H99.8763V39.7545ZM120.848 17.3181H128.069V13.4059H108.93V17.3181H116.225V39.7692H120.848V17.3181Z" fill="#0C1142"/>
</g>
</g>
</svg>
