<svg width=auto height=auto viewBox="0 0 141 148" fill="none" xmlns="http://www.w3.org/2000/svg">
<g id="welcome_illust 1" clip-path="url(#clip0_570_47241)">
<path id="Vector" d="M116.763 148H56.1387C53.3797 148 51.1415 145.766 51.1415 143.013V70.9412C51.1415 68.1878 53.3797 65.9541 56.1387 65.9541H129.498C132.604 65.9541 134.961 68.7531 134.422 71.8074L121.687 143.879C121.267 146.259 119.193 148 116.763 148Z" fill="#FEF390"/>
<path id="Vector_2" d="M36.8624 48.8684H94.1979C96.9569 48.8684 99.1951 51.1021 99.1951 53.8555V125.927C99.1951 128.681 96.9569 130.914 94.1979 130.914H24.1273C21.0212 130.914 18.6642 128.115 19.2032 125.061L31.9383 52.9894C32.3585 50.6098 34.4323 48.8684 36.8624 48.8684Z" fill="#FEF390"/>
<path id="Vector_3" d="M53.873 78.9644C52.7402 78.9644 51.8175 78.0436 51.8175 76.9131V71.7345C51.8175 70.6039 52.7402 69.6831 53.873 69.6831C55.0059 69.6831 55.9286 70.6039 55.9286 71.7345V76.9131C55.9286 78.0436 55.0059 78.9644 53.873 78.9644Z" fill="#0C1142"/>
<path id="Vector_4" d="M65.2013 78.9644C64.0685 78.9644 63.1458 78.0436 63.1458 76.9131V71.7345C63.1458 70.6039 64.0685 69.6831 65.2013 69.6831C66.3341 69.6831 67.2568 70.6039 67.2568 71.7345V76.9131C67.2568 78.0436 66.3341 78.9644 65.2013 78.9644Z" fill="#0C1142"/>
<path id="Vector_5" d="M60.6335 92.2299C57.7649 92.2299 55.7642 91.7193 55.7094 91.7102C54.6588 91.4367 54.0376 90.3609 54.3208 89.3124C54.604 88.2639 55.6729 87.653 56.7235 87.9174C57.2442 88.0542 69.3216 91.0355 74.7938 79.5387C75.2597 78.5632 76.4291 78.1438 77.4066 78.6087C78.3841 79.0737 78.8044 80.2407 78.3385 81.2163C73.8985 90.5523 65.8409 92.2208 60.6427 92.2208L60.6335 92.2299Z" fill="#0C1142"/>
<path id="Vector_6" d="M29.901 103.9C24.6206 103.9 19.4955 102.532 14.7724 99.8064C6.39495 94.9652 0.465893 86.3676 0.0091096 78.4174C-0.210147 74.6429 2.68586 71.4154 6.4589 71.1965C10.2502 70.9869 13.4751 73.8679 13.6852 77.6333C13.8222 80.0311 16.4442 84.9727 21.6333 87.9723C25.2967 90.0966 31.3353 91.7833 39.3016 87.8081C42.6818 86.1215 46.802 87.489 48.4921 90.8624C50.1822 94.2449 48.8119 98.3477 45.4317 100.034C40.2792 102.605 35.017 103.891 29.8919 103.891L29.901 103.9Z" fill="#FEF390"/>
<path id="Vector_7" d="M81.7826 34.0073C83.821 34.0073 85.4734 32.3582 85.4734 30.324C85.4734 28.2897 83.821 26.6406 81.7826 26.6406C79.7442 26.6406 78.0918 28.2897 78.0918 30.324C78.0918 32.3582 79.7442 34.0073 81.7826 34.0073Z" fill="#F0F4F8"/>
<path id="Vector_8" d="M138.689 48.5037C139.965 48.5037 141 47.471 141 46.197C141 44.9231 139.965 43.8904 138.689 43.8904C137.412 43.8904 136.377 44.9231 136.377 46.197C136.377 47.471 137.412 48.5037 138.689 48.5037Z" fill="#F0F4F8"/>
<path id="Vector_9" d="M23.2228 43.2066C24.4993 43.2066 25.5342 42.1739 25.5342 40.8999C25.5342 39.626 24.4993 38.5933 23.2228 38.5933C21.9463 38.5933 20.9115 39.626 20.9115 40.8999C20.9115 42.1739 21.9463 43.2066 23.2228 43.2066Z" fill="#FEF076"/>
<path id="Vector_10" d="M71.0665 19.6568C72.343 19.6568 73.3778 18.624 73.3778 17.3501C73.3778 16.0762 72.343 15.0435 71.0665 15.0435C69.7899 15.0435 68.7551 16.0762 68.7551 17.3501C68.7551 18.624 69.7899 19.6568 71.0665 19.6568Z" fill="#FEF076"/>
<path id="Vector_11" d="M131.188 28.0902C132.556 28.0902 133.664 26.984 133.664 25.6195C133.664 24.2549 132.556 23.1487 131.188 23.1487C129.821 23.1487 128.713 24.2549 128.713 25.6195C128.713 26.984 129.821 28.0902 131.188 28.0902Z" fill="#FEF076"/>
<path id="Vector_12" d="M31.7373 32.202C33.4629 32.202 34.8617 30.806 34.8617 29.0839C34.8617 27.3618 33.4629 25.9658 31.7373 25.9658C30.0118 25.9658 28.6129 27.3618 28.6129 29.0839C28.6129 30.806 30.0118 32.202 31.7373 32.202Z" fill="#8390F5"/>
<path id="Vector_13" d="M121.23 41.0003C122.053 41.0003 122.72 40.3349 122.72 39.5142C122.72 38.6934 122.053 38.0281 121.23 38.0281C120.408 38.0281 119.741 38.6934 119.741 39.5142C119.741 40.3349 120.408 41.0003 121.23 41.0003Z" fill="#8390F5"/>
<path id="Vector_14" d="M58.9525 33.7519C58.4226 33.7519 57.9201 33.4419 57.6917 32.9223C54.6404 25.8291 49.1956 20.0031 42.7458 16.9215C42.0606 16.5933 41.7774 15.7819 42.0971 15.0981C42.426 14.4143 43.2391 14.1316 43.9243 14.4508C50.9679 17.8059 56.9061 24.1424 60.2132 31.8373C60.5147 32.5302 60.1858 33.3325 59.4915 33.6334C59.3179 33.7063 59.1352 33.7428 58.9525 33.7428V33.7519Z" fill="#FEF076"/>
<path id="Vector_15" d="M101.159 24.8353C101.041 24.8353 100.913 24.817 100.794 24.7897C100.063 24.5891 99.6428 23.8324 99.8437 23.103C100.894 19.3558 101.972 15.4901 104.147 12.0529C106.833 7.81339 111.684 4.23032 116.946 4.94146C118.572 3.6924 120.198 2.82626 121.377 2.27923C124.976 0.610777 129.251 -0.164188 133.728 0.0363912C134.486 0.0728602 135.071 0.711066 135.034 1.4678C134.998 2.22453 134.358 2.83538 133.6 2.77156C129.562 2.59833 125.734 3.27301 122.528 4.76823C121.696 5.15116 120.911 5.57967 120.18 6.03553C121.322 6.79226 121.751 7.78604 121.888 8.58835C122.391 11.3509 119.979 14.3869 118.243 15.7545C117.211 16.5659 115.438 17.3409 113.849 16.8486C112.807 16.5295 112.031 15.718 111.674 14.5693C111.282 13.3293 111.492 11.907 112.287 10.3571C112.771 9.4089 113.355 8.55188 113.995 7.77692C110.934 8.42424 108.185 10.8221 106.476 13.5299C104.512 16.6297 103.489 20.304 102.493 23.8597C102.32 24.4615 101.771 24.8626 101.178 24.8626L101.159 24.8353ZM117.677 7.88633C116.398 9.02598 115.374 10.2842 114.717 11.5788C114.406 12.1897 114.077 13.0649 114.278 13.7396C114.406 14.1499 114.58 14.2046 114.653 14.2228C115.091 14.3596 115.923 14.086 116.544 13.5937C117.978 12.4723 119.412 10.2933 119.184 9.06245C119.147 8.86187 119.047 8.31484 117.85 7.93191C117.795 7.91368 117.731 7.89544 117.677 7.87721V7.88633Z" fill="#8390F5"/>
<path id="Vector_16" d="M11.9312 81.5809C11.3009 81.5809 10.6705 81.2892 10.2685 80.7421C9.60162 79.8304 9.8026 78.5449 10.7162 77.8793C11.0816 77.6058 11.9221 76.2747 12.4794 75.0803C12.9544 74.0501 14.1786 73.6034 15.2109 74.0775C16.2433 74.5516 16.6909 75.7733 16.2158 76.7944C15.8596 77.5602 14.5988 80.1222 13.1463 81.1889C12.7808 81.4533 12.3606 81.5809 11.9404 81.5809H11.9312Z" fill="#FEF390"/>
</g>
<defs>
<clipPath id="clip0_570_47241">
<rect width="141" height="148" fill="white"/>
</clipPath>
</defs>
</svg>
