<svg width="43" height="20" viewBox="0 0 43 20" fill="none" xmlns="http://www.w3.org/2000/svg">
<g id="biskit_signature_mono">
<g id="Union">
<path d="M8.47206 10.2797C8.47206 9.61782 8.08054 9.18997 7.4627 9.18997H6.17271V11.2936H7.53967C8.10319 11.2713 8.47206 10.8769 8.47206 10.2797Z" fill="white"/>
<path d="M8.10319 12.4791H6.17271V14.7966H8.10319C8.74368 14.7966 9.15554 14.3577 9.15554 13.6847C9.15554 12.9582 8.74368 12.4769 8.10319 12.4769V12.4791Z" fill="white"/>
<path fill-rule="evenodd" clip-rule="evenodd" d="M19.1995 0H42.3584C42.7568 0 43.06 0.354324 42.9899 0.742065L40.3487 15.4786C40.2944 15.7794 40.0296 16 39.7174 16H24.7782V19.3694C24.7782 19.717 24.4931 20 24.1377 20H0.641551C0.243232 20 -0.0599965 19.6457 0.0101195 19.2579L2.649 4.52144C2.70332 4.22061 2.96809 4 3.28043 4H18.559V0.630645C18.559 0.283013 18.8442 0 19.1995 0ZM4.77409 15.9933H8.32045V15.9911C9.62403 15.9911 10.5452 15.0306 10.5452 13.6847C10.5452 12.9694 10.122 12.1983 9.52446 11.815C9.43849 11.7504 9.32986 11.688 9.22124 11.6234C9.60143 11.229 9.86167 10.6607 9.86167 10.1705C9.86167 8.90028 8.93834 8.00222 7.63702 8.00222H4.77409V15.9933ZM11.9257 16.0022H13.3062V8.02228H11.9257V16.0022ZM14.689 14.3265C15.3951 15.5097 16.4068 16.2295 17.6425 16.2295V16.2273C19.496 16.2384 20.6298 15.2646 20.6298 13.8496C20.6298 12.2945 19.3154 11.7978 18.1707 11.3654C17.288 11.0319 16.5063 10.7365 16.5063 10.0234C16.5063 9.42618 16.9793 8.99387 17.8099 8.99387C18.3033 9.00501 18.8645 9.28134 19.2131 10.1883L20.494 9.73593C19.978 8.36545 18.8329 7.77938 17.8213 7.77938C16.2031 7.76824 15.0579 8.62173 15.0579 10.0256C15.0579 11.6667 16.395 12.1382 17.5485 12.5449C18.4235 12.8534 19.1927 13.1246 19.1927 13.8407C19.1927 14.5382 18.6993 15.0128 17.6537 15.0128C17.0585 15.0128 16.4068 14.6696 15.8681 13.6624L14.689 14.3265ZM22.6689 11.9933H24.0494V4.0156H22.6689V11.9933ZM27.4148 12.0022H29.0669L25.817 8.01338L29.0782 4.01114H27.4261L24.1649 8.01338L27.4148 12.0022ZM30.4587 11.9933H31.8393V4.0156H30.4587V11.9933ZM36.8544 5.19443H39.0565V4.00891H33.2198V5.19443H35.4445V11.9978H36.8544V5.19443Z" fill="white"/>
</g>
</g>
</svg>
