<svg width="16" height="12" viewBox="0 0 16 12" fill="none" xmlns="http://www.w3.org/2000/svg">
<path d="M5.9257 8.81243L13.6377 1.03743C13.8377 0.83743 14.0752 0.73743 14.3502 0.73743C14.6252 0.73743 14.8627 0.83743 15.0627 1.03743C15.2627 1.23743 15.3627 1.47493 15.3627 1.74993C15.3627 2.02493 15.2627 2.26243 15.0627 2.46243L6.6257 10.9624C6.4257 11.1624 6.19236 11.2624 5.9257 11.2624C5.65903 11.2624 5.4257 11.1624 5.2257 10.9624L0.925695 6.66243C0.725695 6.46243 0.629862 6.22493 0.638195 5.94993C0.646529 5.67493 0.750695 5.43743 0.950695 5.23743C1.1507 5.03743 1.3882 4.93743 1.6632 4.93743C1.9382 4.93743 2.1757 5.03743 2.3757 5.23743L5.9257 8.81243Z" fill="#141B2E"/>
</svg>
