<svg width=auto height=auto viewBox="0 0 24 24" fill="none" xmlns="http://www.w3.org/2000/svg">
<g id="Checked=Yes" clip-path="url(#clip0_157_4215)">
<circle id="Ellipse 1" cx="12" cy="12" r="12" fill="#FEF076"/>
<path id="Vector" d="M10.288 15.3249L17.1373 8.29998C17.3373 8.09998 17.5748 7.99998 17.8498 7.99998C18.1248 7.99998 18.3623 8.09998 18.5623 8.29998C18.7623 8.49998 18.8623 8.73748 18.8623 9.01248C18.8623 9.28748 18.7623 9.52498 18.5623 9.72498L10.988 17.4749C10.788 17.6749 10.5547 17.7749 10.288 17.7749C10.0213 17.7749 9.788 17.6749 9.588 17.4749L5.288 13.1749C5.088 12.9749 4.99217 12.7374 5.0005 12.4624C5.00883 12.1874 5.113 11.9499 5.313 11.7499C5.513 11.5499 5.7505 11.4499 6.0255 11.4499C6.3005 11.4499 6.538 11.5499 6.738 11.7499L10.288 15.3249Z" fill="#141B2E"/>
</g>
<defs>
<clipPath id="clip0_157_4215">
<rect width="24" height="24" fill="white"/>
</clipPath>
</defs>
</svg>
