<svg width="48" height="48" viewBox="0 0 48 48" fill="none" xmlns="http://www.w3.org/2000/svg">
<path d="M22.4047 7.01557L30.0792 12.8337C31.0918 13.6052 31.3328 15.0357 30.6096 16.0884L26.1335 22.7182C25.3941 23.8031 23.9235 24.0924 22.8306 23.3692L14.5453 17.8885C13.4122 17.1411 13.1309 15.5902 13.9265 14.4892L19.0134 7.52988C19.801 6.445 21.3278 6.21195 22.3966 7.0236L22.4047 7.01557Z" fill="#FFDE7E"/>
<path d="M16.0163 11.6123L27.7009 20.4119L24.4061 25.3702L13.0269 15.8313L16.0163 11.6123Z" fill="#FFF8E9"/>
<path d="M7.16001 22.7664L13.0666 14.7544C13.4282 14.2642 14.1997 14.3928 14.3684 14.9794C14.8345 16.5625 15.9757 18.9894 18.7562 20.4761C22.1153 22.2762 25.0807 22.1396 26.2941 21.9789C26.6397 21.9307 26.9692 22.1396 27.0817 22.4771L28.6969 27.2426C28.8898 27.8051 29.4202 28.1667 30.0068 28.1587C32.6427 28.1266 39.7145 28.8739 40.0842 37.6173C40.1244 38.5655 39.3368 39.3531 38.3885 39.3531C35.1259 39.3531 28.0139 39.3531 25.161 39.3531C24.3654 39.3531 23.602 39.0879 22.9671 38.6057L7.73058 26.9131C6.43675 25.9246 6.1796 24.0763 7.14394 22.7664H7.16001Z" fill="#F58D06"/>
<path d="M40.0842 37.6093C40.1244 38.5576 39.3369 39.3451 38.3886 39.3451H25.1691C24.3735 39.3451 23.6101 39.0799 22.9752 38.6058L7.73867 26.9132C6.44485 25.9247 6.18769 24.0764 7.16007 22.7665L7.68242 22.0593L25.4664 35.6967H39.8914C39.9958 36.2914 40.0682 36.9182 40.0923 37.6093H40.0842Z" fill="#FFB200"/>
<path d="M27.9014 24.8478C26.7764 24.9282 25.3299 25.2657 23.6583 26.7604C23.5619 26.8408 23.4574 26.8729 23.3369 26.8729C23.2003 26.8729 23.0637 26.8247 22.9672 26.7202C22.7904 26.5193 22.8145 26.2059 23.0074 26.0291C24.7754 24.4541 26.3585 24.0201 27.58 23.9076L27.9014 24.8478Z" fill="#FFF5C9"/>
<path d="M28.7295 27.2989C27.7973 27.5159 26.7205 27.982 25.5231 29.0427C25.4267 29.1311 25.3222 29.1713 25.2016 29.1713C25.065 29.1713 24.9284 29.1151 24.832 29.0026C24.6552 28.8097 24.6793 28.4963 24.8722 28.3195C26.174 27.1542 27.3794 26.6239 28.4081 26.3667L28.6974 27.2266C28.6974 27.2266 28.7054 27.2667 28.7295 27.2828V27.2989Z" fill="#FFF5C9"/>
</svg>
