<svg viewBox="0 0 48 48" fill="none" xmlns="http://www.w3.org/2000/svg">
<g id="ic_activity_fill_48">
<path id="Vector" d="M6.98464 39.3784L4.84619 37.2707L13.4501 28.6668C14.4578 27.6591 15.1373 26.4292 15.4885 24.977C15.8398 23.5248 16.0154 21.2996 16.0154 18.3015C16.0154 16.4469 16.4295 14.6243 17.2577 12.8337C18.0859 11.043 19.2616 9.38613 20.7847 7.86306C23.6129 5.03486 26.7197 3.42076 30.1053 3.02076C33.4909 2.62076 36.2763 3.53486 38.4615 5.76306C40.6692 7.97653 41.573 10.7741 41.173 14.1558C40.773 17.5375 39.1692 20.6322 36.3615 23.4399C34.8384 24.963 33.1852 26.1322 31.4019 26.9476C29.6186 27.763 27.7923 28.1707 25.923 28.1707C22.9461 28.1707 20.7398 28.3444 19.3039 28.6918C17.868 29.0392 16.6295 29.7335 15.5885 30.7745L6.98464 39.3784ZM20.7538 23.3707C22.3205 24.904 24.4372 25.4675 27.1038 25.0611C29.7705 24.6547 32.1538 23.4015 34.2538 21.3015C36.3872 19.1681 37.6622 16.7765 38.0788 14.1265C38.4955 11.4765 37.9205 9.40146 36.3538 7.90146C34.7795 6.31429 32.691 5.72391 30.0884 6.13031C27.4859 6.53675 25.1077 7.80663 22.9538 9.93996C20.8538 12.0271 19.5788 14.3957 19.1288 17.0457C18.6788 19.6957 19.2205 21.804 20.7538 23.3707ZM36.1538 45.0706C34.2289 45.0706 32.581 44.3852 31.2101 43.0144C29.8393 41.6436 29.1539 39.9957 29.1539 38.0707C29.1539 36.1457 29.8393 34.4978 31.2101 33.127C32.581 31.7562 34.2289 31.0708 36.1538 31.0708C38.0788 31.0708 39.7267 31.7562 41.0975 33.127C42.4684 34.4978 43.1538 36.1457 43.1538 38.0707C43.1538 39.9957 42.4684 41.6436 41.0975 43.0144C39.7267 44.3852 38.0788 45.0706 36.1538 45.0706Z" fill="currentColor"/>
</g>
</svg>
