<svg width="33" height="32" viewBox="0 0 33 32" fill="none" xmlns="http://www.w3.org/2000/svg">
<g id="ic_chat_fill_24">
<path id="Vector" fill-rule="evenodd" clip-rule="evenodd" d="M2.8667 14.6667C2.8667 9.51205 7.04537 5.33337 12.2 5.33337H20.2C25.3547 5.33337 29.5334 9.51205 29.5334 14.6667C29.5334 19.8214 25.3547 24 20.2 24H12.2C11.5088 24 10.8351 23.9249 10.1867 23.7823L5.75933 26.7056C5.30088 27.0083 4.69362 26.6576 4.72653 26.1093L5.05303 20.6697C3.6886 19.0469 2.8667 16.9528 2.8667 14.6667ZM12.2 14.6667C12.2 15.4031 11.6031 16 10.8667 16C10.1303 16 9.53337 15.4031 9.53337 14.6667C9.53337 13.9303 10.1303 13.3334 10.8667 13.3334C11.6031 13.3334 12.2 13.9303 12.2 14.6667ZM16.2 16C16.9364 16 17.5334 15.4031 17.5334 14.6667C17.5334 13.9303 16.9364 13.3334 16.2 13.3334C15.4637 13.3334 14.8667 13.9303 14.8667 14.6667C14.8667 15.4031 15.4637 16 16.2 16ZM22.8667 14.6667C22.8667 15.4031 22.2697 16 21.5334 16C20.797 16 20.2 15.4031 20.2 14.6667C20.2 13.9303 20.797 13.3334 21.5334 13.3334C22.2697 13.3334 22.8667 13.9303 22.8667 14.6667Z" fill="#BCC4CF"/>
</g>
</svg>
