<svg xmlns="http://www.w3.org/2000/svg" viewBox="0 0 24 24" fill="none">
  <path fill-rule="evenodd" clip-rule="evenodd" d="M13.4904 2.5489C12.5671 2.02032 11.4329 2.02032 10.5096 2.5489L4.50955 5.98367C3.57597 6.51811 3 7.51151 3 8.58724V15.4128C3 16.4885 3.57597 17.4819 4.50955 18.0163L10.5096 21.4511C11.4329 21.9797 12.5671 21.9797 13.4904 21.4511L19.4904 18.0163C20.424 17.4819 21 16.4885 21 15.4128V8.58724C21 7.51151 20.424 6.51812 19.4904 5.98367L13.4904 2.5489ZM12.4516 8.31324C12.2708 7.93275 11.7293 7.93275 11.5485 8.31324L10.425 10.6771C10.0632 11.4384 9.14532 11.7522 8.39318 11.3717L6.87547 10.6041C6.47333 10.4007 6.02848 10.7913 6.17818 11.2163L7.25398 14.2709C7.53583 15.0712 8.29195 15.6066 9.1404 15.6066H14.8597C15.7082 15.6066 16.4643 15.0712 16.7461 14.2709L17.8219 11.2163C17.9716 10.7913 17.5268 10.4007 17.1247 10.6041L15.6069 11.3717C14.8548 11.7522 13.937 11.4384 13.5751 10.6771L12.4516 8.31324Z" fill="currentColor"/>
</svg>