<svg viewBox="0 0 48 48" fill="none" xmlns="http://www.w3.org/2000/svg">
<g id="ic_cafe_fill_48">
<path id="Vector" d="M20.25 35.2307C16.5808 35.2307 13.4551 33.9749 10.8731 31.4634C8.29103 28.9519 7 25.8743 7 22.2308V9.99995C7 9.18202 7.29552 8.47755 7.88655 7.88655C8.47755 7.29552 9.18202 7 9.99995 7H34.75C36.4781 7 37.9518 7.5968 39.1711 8.7904C40.3903 9.98397 40.9999 11.4384 40.9999 13.1538C40.9999 14.9076 40.3935 16.4038 39.1807 17.6423C37.9679 18.8807 36.491 19.4999 34.75 19.4999H33.3076V22.2308C33.3076 25.8487 32.039 28.9198 29.5019 31.4442C26.9647 33.9685 23.8807 35.2307 20.25 35.2307ZM9.99995 16.5H30.3077V9.99995H9.99995V16.5ZM33.3076 16.5H34.75C35.6602 16.5 36.4294 16.1731 37.0576 15.5192C37.6859 14.8654 38 14.0769 38 13.1538C38 12.2692 37.6794 11.5224 37.0384 10.9134C36.3974 10.3044 35.6346 9.99995 34.75 9.99995H33.3076V16.5ZM7 40.9999V38H36.9999V40.9999H7Z" fill="currentColor"/>
</g>
</svg>
