<svg width=auto height=auto viewBox="0 0 57 56" fill="none" xmlns="http://www.w3.org/2000/svg">
<path d="M22.784 35.35L42.559 15.575C43.0256 15.1083 43.5798 14.875 44.2215 14.875C44.8631 14.875 45.4173 15.1083 45.884 15.575C46.3506 16.0417 46.584 16.5958 46.584 17.2375C46.584 17.8792 46.3506 18.4333 45.884 18.9L24.4173 40.3667C23.9506 40.8333 23.4062 41.0667 22.784 41.0667C22.1618 41.0667 21.6173 40.8333 21.1506 40.3667L11.1173 30.3333C10.6506 29.8667 10.427 29.3125 10.4465 28.6708C10.4659 28.0292 10.709 27.475 11.1756 27.0083C11.6423 26.5417 12.1965 26.3083 12.8381 26.3083C13.4798 26.3083 14.034 26.5417 14.5006 27.0083L22.784 35.35Z" fill="#465063"/>
</svg>
