<svg width="20" height="20" viewBox="0 0 20 20" fill="none" xmlns="http://www.w3.org/2000/svg">
<g id="ic_calendar_check_fill_24">
<path id="Vector" d="M9.12497 14.9873L6.45511 12.3174L7.35895 11.4136L9.12497 13.1796L12.641 9.66358L13.5448 10.5674L9.12497 14.9873ZM4.42307 17.9167C4.00213 17.9167 3.64582 17.7709 3.35416 17.4792C3.06249 17.1876 2.91666 16.8313 2.91666 16.4103V5.25653C2.91666 4.83559 3.06249 4.47928 3.35416 4.18762C3.64582 3.89595 4.00213 3.75012 4.42307 3.75012H5.57693V1.9873H6.85895V3.75012H13.173V1.9873H14.423V3.75012H15.5769C15.9978 3.75012 16.3541 3.89595 16.6458 4.18762C16.9374 4.47928 17.0833 4.83559 17.0833 5.25653V16.4103C17.0833 16.8313 16.9374 17.1876 16.6458 17.4792C16.3541 17.7709 15.9978 17.9167 15.5769 17.9167H4.42307ZM4.42307 16.6668H15.5769C15.641 16.6668 15.6997 16.6401 15.7532 16.5866C15.8066 16.5332 15.8333 16.4744 15.8333 16.4103V8.58987H4.16664V16.4103C4.16664 16.4744 4.19334 16.5332 4.24676 16.5866C4.30019 16.6401 4.35896 16.6668 4.42307 16.6668Z" fill="#677389"/>
</g>
</svg>
