<svg width="24" height="24" viewBox="0 0 24 24" fill="none" xmlns="http://www.w3.org/2000/svg">
<g id="ic_chat_fill_24">
<path id="Vector" fill-rule="evenodd" clip-rule="evenodd" d="M11.9999 19.7852C12.9818 19.7852 13.9269 19.6378 14.8116 19.3653L18.3148 20.9948C19.0218 21.3237 19.8165 20.7527 19.7304 19.9776L19.3174 16.261C20.3764 14.8772 20.9998 13.1808 20.9998 11.3478C20.9998 6.68796 16.9704 2.9104 11.9999 2.9104C7.0294 2.9104 3 6.68796 3 11.3478C3 16.0077 7.0294 19.7852 11.9999 19.7852ZM7.99988 12.5C8.55216 12.5 8.99988 12.0523 8.99988 11.5C8.99988 10.9477 8.55216 10.5 7.99988 10.5C7.44759 10.5 6.99988 10.9477 6.99988 11.5C6.99988 12.0523 7.44759 12.5 7.99988 12.5ZM12.9999 11.5C12.9999 12.0523 12.5522 12.5 11.9999 12.5C11.4476 12.5 10.9999 12.0523 10.9999 11.5C10.9999 10.9477 11.4476 10.5 11.9999 10.5C12.5522 10.5 12.9999 10.9477 12.9999 11.5ZM15.9999 12.5C16.5522 12.5 16.9999 12.0523 16.9999 11.5C16.9999 10.9477 16.5522 10.5 15.9999 10.5C15.4476 10.5 14.9999 10.9477 14.9999 11.5C14.9999 12.0523 15.4476 12.5 15.9999 12.5Z" fill="#171C2B"/>
</g>
</svg>
