<svg width="33" height="32" viewBox="0 0 33 32" fill="none" xmlns="http://www.w3.org/2000/svg">
<g id="ic_chat_line_24">
<g id="Vector">
<path d="M10.8667 16.6667C11.603 16.6667 12.2 16.0698 12.2 15.3334C12.2 14.597 11.603 14.0001 10.8667 14.0001C10.1303 14.0001 9.53333 14.597 9.53333 15.3334C9.53333 16.0698 10.1303 16.6667 10.8667 16.6667Z" fill="#677389"/>
<path d="M17.5333 15.3334C17.5333 16.0698 16.9364 16.6667 16.2 16.6667C15.4636 16.6667 14.8667 16.0698 14.8667 15.3334C14.8667 14.597 15.4636 14.0001 16.2 14.0001C16.9364 14.0001 17.5333 14.597 17.5333 15.3334Z" fill="#677389"/>
<path d="M21.5333 16.6667C22.2697 16.6667 22.8667 16.0698 22.8667 15.3334C22.8667 14.597 22.2697 14.0001 21.5333 14.0001C20.7969 14.0001 20.2 14.597 20.2 15.3334C20.2 16.0698 20.7969 16.6667 21.5333 16.6667Z" fill="#677389"/>
<path fill-rule="evenodd" clip-rule="evenodd" d="M28.1999 15.1305C28.1999 17.5745 27.3687 19.8364 25.9567 21.6814L26.5073 26.6369C26.6222 27.6703 25.5626 28.4316 24.6198 27.9931L19.9489 25.8205C18.7694 26.1839 17.5092 26.3804 16.2 26.3804C9.57269 26.3804 4.20016 21.3437 4.20016 15.1305C4.20016 8.91737 9.57269 3.88062 16.2 3.88062C22.8274 3.88062 28.1999 8.91737 28.1999 15.1305ZM20.7924 24.0071C20.3436 23.7983 19.8332 23.7634 19.3601 23.9092C18.3702 24.2141 17.3084 24.3804 16.2 24.3804C10.5537 24.3804 6.20016 20.1195 6.20016 15.1305C6.20016 10.1416 10.5537 5.88062 16.2 5.88062C21.8464 5.88062 26.1999 10.1416 26.1999 15.1305C26.1999 17.1099 25.5291 18.9493 24.3685 20.4659C24.0552 20.8753 23.9121 21.3898 23.969 21.9022L24.3887 25.6798L20.7924 24.0071Z" fill="#677389"/>
</g>
</g>
</svg>
