<svg width="48" height="48" viewBox="0 0 48 48" fill="none" xmlns="http://www.w3.org/2000/svg">
<path d="M39.0801 37.1431V26.4791C39.0801 24.9746 37.8604 23.7549 36.3558 23.7549H15.0761C13.5715 23.7549 12.3518 24.9746 12.3518 26.4791V37.1431C12.3518 38.6477 13.5715 39.8674 15.0761 39.8674H36.3558C37.8604 39.8674 39.0801 38.6477 39.0801 37.1431Z" fill="#FFB200"/>
<path d="M37.7538 24.1487L21.0546 36.235C20.8698 36.3636 20.6127 36.2993 20.5162 36.0984L14.8105 23.7629L36.3876 23.7549C36.8859 23.7549 37.3439 23.8915 37.7377 24.1487H37.7538Z" fill="#F58D06"/>
<path d="M27.3147 35.4716L25.9245 34.2903C25.7798 34.1698 25.5869 34.1296 25.4102 34.1778L23.6422 34.652C23.1841 34.7725 22.7904 34.3225 22.9672 33.8885L23.6583 32.2009C23.7306 32.0241 23.7145 31.8313 23.61 31.6705L22.6136 30.1356C22.3564 29.7419 22.6618 29.2195 23.1359 29.2597L24.9601 29.3963C25.145 29.4124 25.3298 29.332 25.4503 29.1874L26.5995 27.765C26.8968 27.3953 27.4835 27.5319 27.596 27.99L28.0299 29.766C28.0782 29.9508 28.2067 30.0954 28.3835 30.1597L30.0952 30.8107C30.5372 30.9794 30.5935 31.5821 30.1917 31.8232L28.6327 32.7795C28.4719 32.876 28.3755 33.0447 28.3594 33.2376L28.271 35.0618C28.2469 35.5359 27.6924 35.769 27.3308 35.4636L27.3147 35.4716Z" fill="#F58D06"/>
<path d="M29.0827 30.433L23.2806 34.6359C23.0073 34.5234 22.8386 34.2019 22.9672 33.8885L23.6583 32.2009C23.7306 32.0241 23.7145 31.8313 23.61 31.6705L22.6136 30.1437C22.3564 29.7419 22.6618 29.2275 23.1359 29.2597L24.9521 29.3963C25.145 29.4124 25.3218 29.332 25.4423 29.1874L26.5915 27.765C26.8888 27.3953 27.4754 27.5319 27.588 27.99L28.0139 29.766C28.0621 29.9508 28.1907 30.0954 28.3675 30.1597L29.0827 30.433Z" fill="#EA6911"/>
<path d="M38.6781 18.6359L21.2798 36.0342C20.2351 37.0789 18.5556 37.0789 17.5109 36.0342L8.43001 26.9533C7.38531 25.9086 7.38531 24.221 8.43001 23.1844L25.8283 5.78606C25.9006 5.71374 25.9569 5.65749 26.0292 5.60123C26.1739 5.48069 26.3185 5.39229 26.4792 5.30389C26.64 5.23157 26.7926 5.16728 26.9614 5.11103C27.1302 5.07085 27.2909 5.03067 27.4596 5.01459C28.2311 4.94227 29.0187 5.19942 29.6053 5.78606L32.0001 8.18084C32.2813 8.46211 32.2974 8.87999 32.1045 9.22554C31.5581 10.1818 31.6947 11.4194 32.5064 12.2311C33.318 13.0427 34.5475 13.1713 35.5038 12.6329C35.8414 12.44 36.2673 12.4561 36.5485 12.7373L38.6781 14.8669C39.7228 15.9116 39.7228 17.6073 38.6781 18.6439V18.6359Z" fill="#FFDE7E"/>
<path d="M23.9638 25.4103H22.2521C22.0753 25.4103 21.9146 25.4987 21.8101 25.6433L20.8378 27.0577C20.5886 27.4193 20.0261 27.339 19.8895 26.9211L19.3591 25.2898C19.3029 25.121 19.1743 24.9924 19.0055 24.9442L17.3581 24.454C16.9322 24.3254 16.8358 23.7709 17.1974 23.5138L18.5876 22.5012C18.7323 22.3967 18.8126 22.228 18.8046 22.0592L18.7564 20.3475C18.7484 19.9055 19.2466 19.6403 19.6002 19.8975L20.9904 20.902C21.1351 21.0065 21.3199 21.0306 21.4807 20.9743L23.0959 20.4038C23.5138 20.2591 23.9156 20.6529 23.779 21.0708L23.2486 22.7021C23.1924 22.8709 23.2245 23.0557 23.329 23.1923L24.3737 24.5504C24.6469 24.904 24.3897 25.4103 23.9478 25.4103H23.9638Z" fill="#FFA200"/>
<path d="M32.9481 21.111L31.7668 19.9297C31.7105 19.8734 31.7105 19.785 31.7668 19.7368L32.1686 19.335C32.2248 19.2788 32.3132 19.2788 32.3615 19.335L33.5428 20.5163C33.599 20.5726 33.599 20.661 33.5428 20.7092L33.141 21.111C33.0847 21.1673 32.9963 21.1673 32.9481 21.111ZM30.1997 18.3626L29.0184 17.1813C28.9622 17.1251 28.9622 17.0367 29.0184 16.9885L29.4202 16.5867C29.4765 16.5304 29.5649 16.5304 29.6131 16.5867L30.7944 17.768C30.8507 17.8242 30.8507 17.9126 30.7944 17.9608L30.3926 18.3626C30.3363 18.4189 30.248 18.4189 30.1997 18.3626ZM27.4514 15.6143L26.27 14.433C26.2138 14.3767 26.2138 14.2883 26.27 14.2401L26.6719 13.8383C26.7281 13.782 26.8165 13.782 26.8647 13.8383L28.046 15.0196C28.1023 15.0759 28.1023 15.1643 28.046 15.2125L27.6442 15.6143C27.588 15.6705 27.4996 15.6705 27.4514 15.6143ZM24.703 12.8659L23.5217 11.6846C23.4654 11.6283 23.4654 11.5399 23.5217 11.4917L23.9235 11.0899C23.9797 11.0337 24.0681 11.0337 24.1164 11.0899L25.2977 12.2712C25.3539 12.3275 25.3539 12.4159 25.2977 12.4641L24.8959 12.8659C24.8396 12.9222 24.7512 12.9222 24.703 12.8659Z" fill="#FFA200"/>
</svg>
