<svg xmlns="http://www.w3.org/2000/svg" viewBox="0 0 20 20" fill="none">
  <path fill-rule="evenodd" clip-rule="evenodd" d="M7.91666 3.33333C7.91666 2.8731 7.54356 2.5 7.08332 2.5C6.62309 2.5 6.24999 2.8731 6.24999 3.33333L5.41666 3.33333C4.03594 3.33333 2.91666 4.45262 2.91666 5.83333V15C2.91666 16.3807 4.03594 17.5 5.41666 17.5H14.5833C15.964 17.5 17.0833 16.3807 17.0833 15V5.83333C17.0833 4.45262 15.964 3.33333 14.5833 3.33333H13.75C13.75 2.8731 13.3769 2.5 12.9167 2.5C12.4564 2.5 12.0833 2.8731 12.0833 3.33333L7.91666 3.33333ZM4.99999 6.28418C4.76987 6.28418 4.58332 6.47073 4.58332 6.70085C4.58332 6.93096 4.76987 7.11751 4.99999 7.11751H15C15.2301 7.11751 15.4167 6.93096 15.4167 6.70085C15.4167 6.47073 15.2301 6.28418 15 6.28418H4.99999ZM12.5461 14.5565C12.7667 14.5565 12.9456 14.3776 12.9456 14.1569V10.2182C12.9456 9.89049 12.68 9.62484 12.3523 9.62484C12.219 9.62484 12.0895 9.66974 11.9849 9.7523L11.1034 10.4475C10.9754 10.5484 10.9247 10.7189 10.9767 10.8734C11.0613 11.125 11.3687 11.218 11.5786 11.0555L12.1465 10.6158V14.1569C12.1465 14.3776 12.3254 14.5565 12.5461 14.5565ZM9.37052 11.9672C9.60365 12.1043 9.79335 12.2734 9.93963 12.4746C10.0905 12.6757 10.1659 12.8951 10.1659 13.1328C10.1659 13.4071 10.0928 13.6539 9.94649 13.8733C9.80478 14.0927 9.60136 14.2642 9.33624 14.3876C9.07568 14.5064 8.77398 14.5659 8.43114 14.5659C8.0883 14.5659 7.78661 14.5042 7.52605 14.3807C7.26549 14.2527 7.06436 14.0767 6.92265 13.8528C6.8492 13.7343 6.79478 13.6072 6.7594 13.4715C6.70302 13.2553 6.89122 13.0711 7.11464 13.0711H7.1391C7.34902 13.0711 7.51262 13.2513 7.61519 13.4345C7.68375 13.5442 7.78661 13.6333 7.92374 13.7019C8.06088 13.7705 8.23001 13.8048 8.43114 13.8048C8.63685 13.8048 8.81284 13.7705 8.95911 13.7019C9.10539 13.6333 9.2151 13.5442 9.28824 13.4345C9.36595 13.3202 9.4048 13.1991 9.4048 13.0711C9.4048 12.8654 9.32481 12.6917 9.16482 12.55C9.0094 12.4083 8.76941 12.3374 8.44486 12.3374C8.25172 12.3374 8.09516 12.1809 8.09516 11.9877V11.974C8.09516 11.7733 8.25786 11.6106 8.45857 11.6106C8.72827 11.6106 8.94083 11.5443 9.09625 11.4118C9.25167 11.2792 9.32938 11.1238 9.32938 10.9455C9.32938 10.8358 9.29509 10.7329 9.22653 10.6369C9.16253 10.5364 9.06654 10.4564 8.93854 10.397C8.81512 10.3375 8.66199 10.3078 8.47914 10.3078C8.29629 10.3078 8.14316 10.3375 8.01974 10.397C7.90089 10.4564 7.81175 10.5364 7.75232 10.6369C7.66197 10.7951 7.52241 10.9523 7.34029 10.9523H7.26549C7.04207 10.9523 6.85299 10.7677 6.91269 10.5524C6.94582 10.4329 6.99485 10.3217 7.05979 10.2187C7.19692 10.0038 7.38663 9.83927 7.6289 9.72499C7.87574 9.60614 8.15916 9.54671 8.47914 9.54671C8.78998 9.54671 9.06654 9.60385 9.30881 9.71813C9.55565 9.83241 9.74536 9.9924 9.87792 10.1981C10.0151 10.3992 10.0836 10.6301 10.0836 10.8906C10.0836 11.1055 10.0173 11.3066 9.88478 11.494C9.75678 11.6815 9.58536 11.8392 9.37052 11.9672Z" fill="currentColor"/>
</svg>