<svg width=auto height=auto viewBox="0 0 41 41" fill="none" xmlns="http://www.w3.org/2000/svg">
<g id="ic_camera_fill_24">
<path id="Vector" d="M20.5 29.0257C22.4124 29.0257 24.0337 28.3607 25.3638 27.0305C26.6939 25.7004 27.359 24.0792 27.359 22.1668C27.359 20.2544 26.6939 18.6332 25.3638 17.303C24.0337 15.9729 22.4124 15.3079 20.5 15.3079C18.5877 15.3079 16.9664 15.9729 15.6363 17.303C14.3062 18.6332 13.6411 20.2544 13.6411 22.1668C13.6411 24.0792 14.3062 25.7004 15.6363 27.0305C16.9664 28.3607 18.5877 29.0257 20.5 29.0257ZM20.5 26.5258C19.2693 26.5258 18.2351 26.107 17.3975 25.2694C16.5598 24.4318 16.141 23.3976 16.141 22.1668C16.141 20.936 16.5598 19.9018 17.3975 19.0642C18.2351 18.2266 19.2693 17.8078 20.5 17.8078C21.7308 17.8078 22.765 18.2266 23.6026 19.0642C24.4402 19.9018 24.859 20.936 24.859 22.1668C24.859 23.3976 24.4402 24.4318 23.6026 25.2694C22.765 26.107 21.7308 26.5258 20.5 26.5258ZM7.67958 34.6667C6.83769 34.6667 6.12508 34.3751 5.54175 33.7917C4.95841 33.2084 4.66675 32.4958 4.66675 31.6539V12.6797C4.66675 11.8378 4.95841 11.1252 5.54175 10.5418C6.12508 9.9585 6.83769 9.66683 7.67958 9.66683H12.7693L15.8526 6.3335H25.1475L28.2308 9.66683H33.3205C34.1624 9.66683 34.875 9.9585 35.4583 10.5418C36.0417 11.1252 36.3333 11.8378 36.3333 12.6797V31.6539C36.3333 32.4958 36.0417 33.2084 35.4583 33.7917C34.875 34.3751 34.1624 34.6667 33.3205 34.6667H7.67958Z" fill="#9CA6B8"/>
</g>
</svg>
