<svg width="33" height="32" viewBox="0 0 33 32" fill="none" xmlns="http://www.w3.org/2000/svg">
<g id="ic_create_line_24">
<path id="Vector" fill-rule="evenodd" clip-rule="evenodd" d="M24.1333 6.66675H9.46667C8.36211 6.66675 7.46667 7.56218 7.46667 8.66675V23.3334C7.46667 24.438 8.36211 25.3334 9.46667 25.3334H24.1333C25.2379 25.3334 26.1333 24.438 26.1333 23.3334V8.66675C26.1333 7.56218 25.2379 6.66675 24.1333 6.66675ZM9.46667 4.66675C7.25754 4.66675 5.46667 6.45761 5.46667 8.66675V23.3334C5.46667 25.5426 7.25754 27.3334 9.46667 27.3334H24.1333C26.3425 27.3334 28.1333 25.5426 28.1333 23.3334V8.66675C28.1333 6.45761 26.3425 4.66675 24.1333 4.66675H9.46667ZM10.4667 16.0001C10.4667 15.4478 10.9144 15.0001 11.4667 15.0001H15.8V10.6667C15.8 10.1145 16.2477 9.66674 16.8 9.66674C17.3523 9.66674 17.8 10.1145 17.8 10.6667V15.0001H22.1333C22.6856 15.0001 23.1333 15.4478 23.1333 16.0001C23.1333 16.5524 22.6856 17.0001 22.1333 17.0001H17.8V21.3334C17.8 21.8857 17.3523 22.3334 16.8 22.3334C16.2477 22.3334 15.8 21.8857 15.8 21.3334V17.0001H11.4667C10.9144 17.0001 10.4667 16.5524 10.4667 16.0001Z" fill="#677389"/>
</g>
</svg>
