<svg width="20" height="20" viewBox="0 0 20 20" fill="none" xmlns="http://www.w3.org/2000/svg">
<g id="icon grid">
<path id="Subtract" fill-rule="evenodd" clip-rule="evenodd" d="M7.80322 3.33333C7.80322 2.8731 7.43013 2.5 6.96989 2.5C6.50965 2.5 6.13656 2.8731 6.13656 3.33333L5.30322 3.33333C3.92251 3.33333 2.80322 4.45262 2.80322 5.83333V15C2.80322 16.3807 3.92251 17.5 5.30322 17.5H14.4699C15.8506 17.5 16.9699 16.3807 16.9699 15V5.83333C16.9699 4.45262 15.8506 3.33333 14.4699 3.33333H13.6366C13.6366 2.8731 13.2635 2.5 12.8032 2.5C12.343 2.5 11.9699 2.8731 11.9699 3.33333L7.80322 3.33333ZM4.88656 6.28418C4.65644 6.28418 4.46989 6.47073 4.46989 6.70085C4.46989 6.93096 4.65644 7.11751 4.88656 7.11751H14.8866C15.1167 7.11751 15.3032 6.93096 15.3032 6.70085C15.3032 6.47073 15.1167 6.28418 14.8866 6.28418H4.88656ZM12.4326 14.5565C12.6533 14.5565 12.8322 14.3776 12.8322 14.1569V10.2182C12.8322 9.89049 12.5666 9.62484 12.2389 9.62484C12.1055 9.62484 11.9761 9.66974 11.8714 9.7523L10.99 10.4475C10.862 10.5484 10.8113 10.7189 10.8632 10.8734C10.9478 11.125 11.2553 11.218 11.4651 11.0555L12.033 10.6158V14.1569C12.033 14.3776 12.2119 14.5565 12.4326 14.5565ZM9.25708 11.9672C9.49022 12.1043 9.67992 12.2734 9.8262 12.4746C9.97705 12.6757 10.0525 12.8951 10.0525 13.1328C10.0525 13.4071 9.97933 13.6539 9.83305 13.8733C9.69135 14.0927 9.48793 14.2642 9.2228 14.3876C8.96224 14.5064 8.66055 14.5659 8.31771 14.5659C7.97487 14.5659 7.67317 14.5042 7.41261 14.3807C7.15206 14.2527 6.95093 14.0767 6.80922 13.8528C6.73576 13.7343 6.68134 13.6072 6.64597 13.4715C6.58959 13.2553 6.77778 13.0711 7.00121 13.0711H7.02567C7.23559 13.0711 7.39919 13.2513 7.50175 13.4345C7.57032 13.5442 7.67317 13.6333 7.81031 13.7019C7.94744 13.7705 8.11658 13.8048 8.31771 13.8048C8.52341 13.8048 8.6994 13.7705 8.84568 13.7019C8.99196 13.6333 9.10167 13.5442 9.1748 13.4345C9.25251 13.3202 9.29137 13.1991 9.29137 13.0711C9.29137 12.8654 9.21137 12.6917 9.05138 12.55C8.89596 12.4083 8.65598 12.3374 8.33142 12.3374C8.13829 12.3374 7.98173 12.1809 7.98173 11.9877V11.974C7.98173 11.7733 8.14443 11.6106 8.34513 11.6106C8.61483 11.6106 8.82739 11.5443 8.98281 11.4118C9.13823 11.2792 9.21594 11.1238 9.21594 10.9455C9.21594 10.8358 9.18166 10.7329 9.11309 10.6369C9.0491 10.5364 8.9531 10.4564 8.82511 10.397C8.70169 10.3375 8.54855 10.3078 8.36571 10.3078C8.18286 10.3078 8.02972 10.3375 7.9063 10.397C7.78745 10.4564 7.69831 10.5364 7.63889 10.6369C7.54853 10.7951 7.40897 10.9523 7.22685 10.9523H7.15206C6.92863 10.9523 6.73955 10.7677 6.79926 10.5524C6.83239 10.4329 6.88142 10.3217 6.94635 10.2187C7.08349 10.0038 7.27319 9.83927 7.51547 9.72499C7.76231 9.60614 8.04572 9.54671 8.36571 9.54671C8.67655 9.54671 8.9531 9.60385 9.19537 9.71813C9.44222 9.83241 9.63192 9.9924 9.76449 10.1981C9.90162 10.3992 9.97019 10.6301 9.97019 10.8906C9.97019 11.1055 9.90391 11.3066 9.77134 11.494C9.64335 11.6815 9.47193 11.8392 9.25708 11.9672Z" fill="#677389"/>
</g>
</svg>
