<svg width="16" height="16" viewBox="0 0 16 16" fill="none" xmlns="http://www.w3.org/2000/svg">
<g id="ic_cancel_fill_16">
<path id="Vector" d="M5.59982 11.1026L7.99982 8.70255L10.3998 11.1026L11.1024 10.4L8.70237 8L11.1024 5.6L10.3998 4.89745L7.99982 7.29745L5.59982 4.89745L4.89727 5.6L7.29727 8L4.89727 10.4L5.59982 11.1026ZM8.00094 14.3333C7.12498 14.3333 6.30163 14.1671 5.53087 13.8347C4.7601 13.5022 4.08965 13.051 3.5195 12.4812C2.94935 11.9113 2.49798 11.2411 2.16539 10.4707C1.8328 9.70026 1.6665 8.87708 1.6665 8.00112C1.6665 7.12516 1.83273 6.30181 2.16517 5.53105C2.49762 4.76029 2.94878 4.08983 3.51867 3.51969C4.08857 2.94953 4.75873 2.49816 5.52915 2.16557C6.29957 1.83298 7.12275 1.66669 7.9987 1.66669C8.87466 1.66669 9.69802 1.83291 10.4688 2.16535C11.2395 2.4978 11.91 2.94896 12.4801 3.51885C13.0503 4.08875 13.5017 4.75892 13.8343 5.52934C14.1668 6.29975 14.3331 7.12293 14.3331 7.99889C14.3331 8.87484 14.1669 9.6982 13.8345 10.469C13.502 11.2397 13.0509 11.9102 12.481 12.4803C11.9111 13.0505 11.2409 13.5018 10.4705 13.8344C9.70008 14.167 8.87689 14.3333 8.00094 14.3333Z" fill="#BCC4CF"/>
</g>
</svg>
