<svg width="20" height="20" viewBox="0 0 20 20" fill="none" xmlns="http://www.w3.org/2000/svg">
<g id="ic_female_line_24">
<path id="Vector" d="M9.375 16.875V15.2083H7.70833V13.9583H9.375V11.8237C8.29381 11.6666 7.39851 11.177 6.6891 10.3549C5.9797 9.53283 5.625 8.57262 5.625 7.47433C5.625 6.26397 6.05155 5.23649 6.90465 4.3919C7.75773 3.5473 8.78951 3.125 9.99998 3.125C11.2105 3.125 12.2422 3.5473 13.0953 4.3919C13.9484 5.23649 14.375 6.26397 14.375 7.47433C14.375 8.57262 14.0203 9.53283 13.3109 10.3549C12.6015 11.177 11.7062 11.6666 10.625 11.8237V13.9583H12.2916V15.2083H10.625V16.875H9.375ZM10.0013 10.625C10.8647 10.625 11.6012 10.3198 12.2107 9.70944C12.8202 9.09906 13.125 8.36215 13.125 7.49869C13.125 6.63523 12.8198 5.89874 12.2094 5.28923C11.5991 4.67972 10.8621 4.37496 9.99869 4.37496C9.13523 4.37496 8.39874 4.68015 7.78923 5.29052C7.17972 5.9009 6.87496 6.63781 6.87496 7.50127C6.87496 8.36473 7.18015 9.10122 7.79052 9.71073C8.4009 10.3202 9.13781 10.625 10.0013 10.625Z" fill="#677389"/>
</g>
</svg>
