<svg viewBox="0 0 48 48" fill="none" xmlns="http://www.w3.org/2000/svg">
<g id="ic_friends_fill_48">
<path id="Vector" d="M3.01953 39.3846V31.8846C3.01953 30.918 3.3471 30.0994 4.00223 29.4289C4.65733 28.7584 5.45155 28.4103 6.38488 28.3847H12.5502C13.1528 28.3847 13.7252 28.5321 14.2675 28.827C14.8098 29.1218 15.2515 29.5334 15.5925 30.0616C16.5848 31.4257 17.815 32.4872 19.2829 33.2462C20.7509 34.0052 22.3233 34.3847 24.0002 34.3847C25.6977 34.3847 27.2836 34.0052 28.7579 33.2462C30.2323 32.4872 31.4554 31.4257 32.4272 30.0616C32.8092 29.5334 33.2663 29.1218 33.7983 28.827C34.3304 28.5321 34.881 28.3847 35.4502 28.3847H41.6156C42.5694 28.4103 43.372 28.7584 44.0232 29.4289C44.6745 30.0994 45.0002 30.918 45.0002 31.8846V39.3846H32.0002V34.6807C30.8592 35.5525 29.6105 36.2211 28.2541 36.6865C26.8977 37.1519 25.4797 37.3846 24.0002 37.3846C22.5541 37.3846 21.1509 37.15 19.7906 36.6807C18.4304 36.2115 17.1733 35.541 16.0195 34.6692V39.3846H3.01953ZM24.0002 31.6154C22.7977 31.6154 21.6586 31.3365 20.5829 30.7788C19.5073 30.2212 18.6054 29.4513 17.8772 28.4692C17.3618 27.7257 16.7336 27.1186 15.9926 26.6481C15.2515 26.1776 14.4451 25.891 13.5734 25.7885C14.4221 24.7475 15.9048 23.9392 18.0214 23.3635C20.1381 22.7879 22.131 22.5001 24.0002 22.5001C25.8694 22.5001 27.8624 22.7879 29.979 23.3635C32.0957 23.9392 33.5848 24.7475 34.4463 25.7885C33.5951 25.891 32.7938 26.1776 32.0425 26.6481C31.2912 27.1186 30.6579 27.7257 30.1425 28.4692C29.4477 29.4846 28.5592 30.2628 27.4771 30.8038C26.3951 31.3449 25.2361 31.6154 24.0002 31.6154ZM8.57718 25.6154C7.06438 25.6154 5.76953 25.0769 4.69263 24C3.6157 22.9231 3.07723 21.6282 3.07723 20.1154C3.07723 18.5693 3.61568 17.2661 4.69258 16.2058C5.76951 15.1456 7.06438 14.6155 8.57718 14.6155C10.1233 14.6155 11.4265 15.1456 12.4868 16.2058C13.547 17.2661 14.0772 18.5693 14.0772 20.1154C14.0772 21.6282 13.547 22.9231 12.4868 24C11.4265 25.0769 10.1233 25.6154 8.57718 25.6154ZM39.4233 25.6154C37.9104 25.6154 36.6156 25.0769 35.5387 24C34.4617 22.9231 33.9233 21.6282 33.9233 20.1154C33.9233 18.5693 34.4617 17.2661 35.5387 16.2058C36.6156 15.1456 37.9104 14.6155 39.4233 14.6155C40.9694 14.6155 42.2726 15.1456 43.3328 16.2058C44.3931 17.2661 44.9232 18.5693 44.9232 20.1154C44.9232 21.6282 44.3931 22.9231 43.3328 24C42.2726 25.0769 40.9694 25.6154 39.4233 25.6154ZM24.0002 19.6154C22.4874 19.6154 21.1926 19.0769 20.1156 18C19.0387 16.9231 18.5003 15.6282 18.5003 14.1154C18.5003 12.5693 19.0387 11.2661 20.1156 10.2058C21.1926 9.1456 22.4874 8.61548 24.0002 8.61548C25.5464 8.61548 26.8496 9.1456 27.9098 10.2058C28.9701 11.2661 29.5002 12.5693 29.5002 14.1154C29.5002 15.6282 28.9701 16.9231 27.9098 18C26.8496 19.0769 25.5464 19.6154 24.0002 19.6154Z" fill="currentColor"/>
</g>
</svg>
