<svg width="33" height="32" viewBox="0 0 33 32" fill="none" xmlns="http://www.w3.org/2000/svg">
<g id="ic_face_line_24">
<g id="Vector">
<path d="M13.5056 17.5755C13.2712 17.0754 12.6757 16.86 12.1757 17.0945C11.6756 17.3289 11.4602 17.9243 11.6946 18.4243C12.0144 19.1065 12.617 19.8968 13.4247 20.5234C14.2402 21.1561 15.3249 21.6666 16.6001 21.6666C17.8753 21.6666 18.96 21.1561 19.7755 20.5234C20.5832 19.8968 21.1858 19.1065 21.5056 18.4243C21.74 17.9243 21.5246 17.3289 21.0245 17.0945C20.5245 16.86 19.9291 17.0754 19.6946 17.5755C19.5144 17.9599 19.117 18.503 18.5497 18.9431C17.9902 19.3771 17.3249 19.6666 16.6001 19.6666C15.8753 19.6666 15.21 19.3771 14.6505 18.9431C14.0832 18.503 13.6858 17.9599 13.5056 17.5755Z" fill="#677389"/>
<path d="M13.9334 11.6667C14.4856 11.6667 14.9334 12.1144 14.9334 12.6667V14C14.9334 14.5523 14.4856 15 13.9334 15C13.3811 15 12.9334 14.5523 12.9334 14V12.6667C12.9334 12.1144 13.3811 11.6667 13.9334 11.6667Z" fill="#677389"/>
<path d="M20.2667 12.6667C20.2667 12.1144 19.819 11.6667 19.2667 11.6667C18.7144 11.6667 18.2667 12.1144 18.2667 12.6667V14C18.2667 14.5523 18.7144 15 19.2667 15C19.819 15 20.2667 14.5523 20.2667 14V12.6667Z" fill="#677389"/>
<path fill-rule="evenodd" clip-rule="evenodd" d="M16.6 28C23.2274 28 28.6 22.6274 28.6 16C28.6 9.37258 23.2274 4 16.6 4C9.97261 4 4.60003 9.37258 4.60003 16C4.60003 22.6274 9.97261 28 16.6 28ZM26.6 16C26.6 21.5228 22.1229 26 16.6 26C11.0772 26 6.60003 21.5228 6.60003 16C6.60003 10.4772 11.0772 6 16.6 6C22.1229 6 26.6 10.4772 26.6 16Z" fill="#677389"/>
</g>
</g>
</svg>
