<svg width="24" height="24" viewBox="0 0 24 24" fill="none" xmlns="http://www.w3.org/2000/svg">
<g id="ic_face_fill_24">
<path id="Vector" fill-rule="evenodd" clip-rule="evenodd" d="M21 12C21 16.9706 16.9706 21 12 21C7.02944 21 3 16.9706 3 12C3 7.02944 7.02944 3 12 3C16.9706 3 21 7.02944 21 12ZM9.67915 13.6816C9.50334 13.3066 9.05678 13.145 8.68173 13.3208C8.30668 13.4966 8.14516 13.9432 8.32096 14.3183C8.5608 14.8299 9.01273 15.4226 9.61847 15.8925C10.2302 16.367 11.0437 16.7499 12.0001 16.7499C12.9564 16.7499 13.77 16.367 14.3816 15.8925C14.9874 15.4226 15.4393 14.8299 15.6791 14.3183C15.855 13.9432 15.6934 13.4966 15.3184 13.3208C14.9433 13.145 14.4968 13.3066 14.321 13.6816C14.1858 13.97 13.8877 14.3772 13.4622 14.7073C13.0427 15.0328 12.5437 15.2499 12.0001 15.2499C11.4564 15.2499 10.9575 15.0328 10.5379 14.7073C10.1124 14.3772 9.81432 13.97 9.67915 13.6816ZM10 8.75C10.4142 8.75 10.75 9.08579 10.75 9.5V10.5C10.75 10.9142 10.4142 11.25 10 11.25C9.58579 11.25 9.25 10.9142 9.25 10.5V9.5C9.25 9.08579 9.58579 8.75 10 8.75ZM14.75 9.5C14.75 9.08579 14.4142 8.75 14 8.75C13.5858 8.75 13.25 9.08579 13.25 9.5V10.5C13.25 10.9142 13.5858 11.25 14 11.25C14.4142 11.25 14.75 10.9142 14.75 10.5V9.5Z" fill="#171C2B"/>
</g>
</svg>
