<svg xmlns="http://www.w3.org/2000/svg" viewBox="0 0 24 24" fill="none">
  <path fill-rule="evenodd" clip-rule="evenodd" d="M4.00012 5.25H13.1146C13.4331 4.23572 14.3807 3.5 15.5001 3.5C16.6195 3.5 17.5671 4.23572 17.8857 5.25H20.0001C20.4143 5.25 20.7501 5.58579 20.7501 6C20.7501 6.41421 20.4143 6.75 20.0001 6.75H17.8857C17.5671 7.76428 16.6195 8.5 15.5001 8.5C14.3807 8.5 13.4331 7.76428 13.1146 6.75H4.00012C3.58591 6.75 3.25012 6.41421 3.25012 6C3.25012 5.58579 3.58591 5.25 4.00012 5.25ZM15.5001 7C15.2465 7 15.0149 6.90559 14.8387 6.75C14.6311 6.56676 14.5001 6.29867 14.5001 6C14.5001 5.70133 14.6311 5.43324 14.8387 5.25C15.0149 5.09441 15.2465 5 15.5001 5C15.7537 5 15.9853 5.09441 16.1616 5.25C16.3692 5.43324 16.5001 5.70133 16.5001 6C16.5001 6.29867 16.3692 6.56676 16.1616 6.75C15.9853 6.90559 15.7537 7 15.5001 7Z" fill="currentColor"/>
  <path fill-rule="evenodd" clip-rule="evenodd" d="M4.00012 17.25H11.1146C11.4331 16.2357 12.3807 15.5 13.5001 15.5C14.6195 15.5 15.5671 16.2357 15.8857 17.25H20.0001C20.4143 17.25 20.7501 17.5858 20.7501 18C20.7501 18.4142 20.4143 18.75 20.0001 18.75H15.8857C15.5671 19.7643 14.6195 20.5 13.5001 20.5C12.3807 20.5 11.4331 19.7643 11.1146 18.75H4.00012C3.58591 18.75 3.25012 18.4142 3.25012 18C3.25012 17.5858 3.58591 17.25 4.00012 17.25ZM13.5001 19C13.2465 19 13.0149 18.9056 12.8387 18.75C12.6311 18.5668 12.5001 18.2987 12.5001 18C12.5001 17.7013 12.6311 17.4332 12.8387 17.25C13.0149 17.0944 13.2465 17 13.5001 17C13.7537 17 13.9853 17.0944 14.1616 17.25C14.3692 17.4332 14.5001 17.7013 14.5001 18C14.5001 18.2987 14.3692 18.5668 14.1616 18.75C13.9853 18.9056 13.7537 19 13.5001 19Z" fill="#171C2B"/>
  <path fill-rule="evenodd" clip-rule="evenodd" d="M10.8857 12.75C10.5671 13.7643 9.61953 14.5 8.50012 14.5C7.38071 14.5 6.43314 13.7643 6.11457 12.75H4.00012C3.58591 12.75 3.25012 12.4142 3.25012 12C3.25012 11.5858 3.58591 11.25 4.00012 11.25H6.11457C6.43314 10.2357 7.38071 9.5 8.50012 9.5C9.61953 9.5 10.5671 10.2357 10.8857 11.25H20.0001C20.4143 11.25 20.7501 11.5858 20.7501 12C20.7501 12.4142 20.4143 12.75 20.0001 12.75H10.8857ZM8.50012 13C9.05241 13 9.50012 12.5523 9.50012 12C9.50012 11.4477 9.05241 11 8.50012 11C7.94784 11 7.50012 11.4477 7.50012 12C7.50012 12.5523 7.94784 13 8.50012 13Z" fill="#171C2B"/>
</svg>