<svg width="48" height="48" viewBox="0 0 48 48" fill="none" xmlns="http://www.w3.org/2000/svg">
<path d="M6.03536 13.5651C6.41306 13.1874 7.03184 13.1874 7.41758 13.5651L13.6295 19.777C14.0554 20.203 14.7385 20.203 15.1564 19.777C15.5743 19.3511 15.5823 18.6922 15.1805 18.2662L9.13732 11.8855C8.75158 11.4757 8.76765 10.8408 9.16142 10.4471C9.5552 10.0533 10.1901 10.0453 10.5999 10.423L16.9806 16.4661C17.4065 16.868 18.0735 16.8599 18.4914 16.442C18.9093 16.0242 18.9173 15.333 18.4914 14.9152L12.2795 8.70321C11.9018 8.32552 11.9018 7.70673 12.2795 7.32099C12.633 6.9674 13.2036 6.93526 13.5974 7.26474L21.1514 14.8911C22.7747 16.5304 23.0961 18.9493 22.1639 20.9262L26.7204 25.4827L24.2051 27.998L19.6486 23.4415C17.6798 24.3818 15.2528 24.0523 13.6135 22.429L5.98714 14.875C5.66569 14.4893 5.6898 13.9187 6.04339 13.5571L6.03536 13.5651Z" fill="#FFDE7E"/>
<path d="M39.0075 40.2933C40.4781 38.8227 40.4058 36.4119 38.8548 35.0296L28.5363 25.8684C27.4274 24.888 25.7478 24.9362 24.7031 25.9809C23.6584 27.0256 23.6102 28.7052 24.5906 29.8142L33.7518 40.1326C35.134 41.6916 37.5449 41.764 39.0155 40.2853L39.0075 40.2933Z" fill="#FFB200"/>
<path d="M28.5363 25.8684C27.4274 24.888 25.7478 24.9362 24.7031 25.9809C23.6584 27.0256 23.6102 28.7052 24.5906 29.8142L26.3023 31.7429L29.4525 26.6881L28.5283 25.8684H28.5363Z" fill="#F58D06"/>
<path d="M29.814 11.6604C33.4945 7.97988 38.3323 7.63432 40.7592 10.0532C43.2745 12.5685 42.5191 17.6313 39.152 20.9985C36.0179 24.1326 32.6186 25.5067 29.6211 23.7147L25.4343 27.9015L22.9189 25.3862L27.1138 21.1913C25.4102 18.3063 26.5674 14.9151 29.822 11.6604H29.814Z" fill="#FFDE7E"/>
<path d="M10.5915 40.221C12.0621 41.6916 14.4729 41.6193 15.8552 40.0683L25.0164 29.7498C25.9968 28.6409 25.9486 26.9613 24.9039 25.9166C23.8592 24.8719 22.1796 24.8237 21.0706 25.8041L10.7522 34.9653C9.19317 36.3475 9.12085 38.7584 10.5995 40.229L10.5915 40.221Z" fill="#FCCE1D"/>
</svg>
