<svg width="32" height="32" viewBox="0 0 32 32" fill="none" xmlns="http://www.w3.org/2000/svg">
<g id="ic_home_fill_24">
<path id="Vector" fill-rule="evenodd" clip-rule="evenodd" d="M6.85865 10.6531C5.89554 11.4116 5.3334 12.5698 5.3334 13.7957V23.4542C5.3334 25.6634 7.12427 27.4542 9.33341 27.4542H22.6667C24.8759 27.4542 26.6667 25.6634 26.6667 23.4542V13.7957C26.6667 12.5698 26.1046 11.4116 25.1415 10.6531L18.4748 5.40311C17.0231 4.25984 14.9771 4.25984 13.5253 5.40311L6.85865 10.6531ZM12.0001 19.7875C11.4478 19.7875 11.0001 20.2352 11.0001 20.7875C11.0001 21.3398 11.4478 21.7875 12.0001 21.7875H20.0001C20.5524 21.7875 21.0001 21.3398 21.0001 20.7875C21.0001 20.2352 20.5524 19.7875 20.0001 19.7875H12.0001Z" fill="#171C2B"/>
</g>
</svg>
