<svg width="48" height="48" viewBox="0 0 48 48" fill="none" xmlns="http://www.w3.org/2000/svg">
<path d="M38.4694 37.9709C37.0148 37.9709 35.6004 37.4486 34.4995 36.5083L30.3368 32.9563C29.4849 32.2331 28.4081 31.8313 27.2911 31.8313H20.7175C19.6004 31.8313 18.5156 32.2331 17.6718 32.9563L13.509 36.5083C12.4 37.4566 10.9937 37.9709 9.53917 37.9709C6.91134 37.9709 4.87016 35.6726 5.16749 33.0608L6.75062 19.4797C7.281 14.9232 11.0419 11.4435 15.5904 11.2346C15.727 11.2346 15.8717 11.2266 16.0163 11.2266H31.9922C32.1369 11.2266 32.2815 11.2266 32.4181 11.2346C36.9666 11.4435 40.7275 14.9152 41.2579 19.4797L42.841 33.0608C43.1464 35.6726 41.1052 37.9709 38.4694 37.9709Z" fill="#FFDA64"/>
<path d="M31.0033 20.4199C31.9709 20.4199 32.7552 19.6356 32.7552 18.668C32.7552 17.7005 31.9709 16.9161 31.0033 16.9161C30.0358 16.9161 29.2515 17.7005 29.2515 18.668C29.2515 19.6356 30.0358 20.4199 31.0033 20.4199Z" fill="#FFF8E9"/>
<path d="M34.2743 25.0406C35.2419 25.0406 36.0262 24.2563 36.0262 23.2887C36.0262 22.3212 35.2419 21.5369 34.2743 21.5369C33.3068 21.5369 32.5225 22.3212 32.5225 23.2887C32.5225 24.2563 33.3068 25.0406 34.2743 25.0406Z" fill="#FFB200"/>
<path d="M17.3498 16.434H15.6783C15.2212 16.434 14.8506 16.8045 14.8506 17.2617V24.6951C14.8506 25.1523 15.2212 25.5229 15.6783 25.5229H17.3498C17.807 25.5229 18.1776 25.1523 18.1776 24.6951V17.2617C18.1776 16.8045 17.807 16.434 17.3498 16.434Z" fill="#F58D06"/>
<path d="M21.063 21.8102V20.1386C21.063 19.6815 20.6924 19.3109 20.2353 19.3109H12.8018C12.3447 19.3109 11.9741 19.6815 11.9741 20.1386V21.8102C11.9741 22.2673 12.3447 22.6379 12.8018 22.6379H20.2353C20.6924 22.6379 21.063 22.2673 21.063 21.8102Z" fill="#F58D06"/>
<path d="M20.3476 31.8473C19.3672 31.9196 18.4109 32.3053 17.6636 32.9563L13.5008 36.5083C12.3918 37.4485 10.9855 37.9708 9.53096 37.9708C6.8951 37.9708 4.86195 35.6725 5.15929 33.0688L6.3406 22.887C8.79967 27.4515 14.0151 30.8829 20.3476 31.8392V31.8473Z" fill="url(#paint0_linear_1010_566)"/>
<path d="M38.469 37.9709C37.0064 37.9709 35.6081 37.4485 34.4991 36.5083L30.3364 32.9563C29.5729 32.2973 28.6327 31.9116 27.6362 31.8473C33.9687 30.883 39.1922 27.4676 41.6513 22.895L42.8326 33.0768C43.138 35.6806 41.0968 37.9789 38.4609 37.9789L38.469 37.9709Z" fill="#FCCE1D"/>
<path d="M20.3476 31.8473C19.3672 31.9196 18.4109 32.3053 17.6636 32.9563L13.5008 36.5083C12.3918 37.4485 10.9855 37.9708 9.53096 37.9708C6.8951 37.9708 4.86195 35.6725 5.15929 33.0688L6.3406 22.887C8.79967 27.4515 14.0151 30.8829 20.3476 31.8392V31.8473Z" fill="#FCCE1D"/>
<path d="M41.3462 23.4254C40.3176 28.4721 36.7334 32.5866 32.0162 34.3867L30.3447 32.9563C29.5812 32.2973 28.641 31.9116 27.6445 31.8473C33.7279 30.9232 38.7827 27.7328 41.3462 23.4254Z" fill="#FCCE1D"/>
<path d="M41.3462 23.4254C40.3176 28.4721 36.7334 32.5866 32.0162 34.3867L30.3447 32.9563C29.5812 32.2973 28.641 31.9116 27.6445 31.8473C33.7279 30.9232 38.7827 27.7328 41.3462 23.4254Z" fill="#FFB200"/>
<path d="M20.3475 31.8473C19.3671 31.9197 18.4188 32.3054 17.6634 32.9563L15.9999 34.3787C11.1381 32.5867 7.47358 28.3436 6.49316 23.1442C9.00045 27.5882 14.1356 30.8991 20.3475 31.8473Z" fill="#FCCE1D"/>
<path d="M20.3475 31.8473C19.3671 31.9197 18.4188 32.3054 17.6634 32.9563L15.9999 34.3787C11.1381 32.5867 7.47358 28.3436 6.49316 23.1442C9.00045 27.5882 14.1356 30.8991 20.3475 31.8473Z" fill="#FFB200"/>
<defs>
<linearGradient id="paint0_linear_1010_566" x1="5.762" y1="30.8187" x2="25.2256" y2="27.6926" gradientUnits="userSpaceOnUse">
<stop stop-color="#747CEF" stop-opacity="0"/>
<stop offset="1" stop-color="#677EEF"/>
</linearGradient>
</defs>
</svg>
