<svg width="24" height="24" viewBox="0 0 24 24" fill="none" xmlns="http://www.w3.org/2000/svg">
<path d="M9 15.0566C8.58579 15.0566 8.25 15.3924 8.25 15.8066C8.25 16.2209 8.58579 16.5566 9 16.5566H15C15.4142 16.5566 15.75 16.2209 15.75 15.8066C15.75 15.3924 15.4142 15.0566 15 15.0566H9Z" fill="#171C2B"/>
<path fill-rule="evenodd" clip-rule="evenodd" d="M4 10.5627C4 9.64332 4.4216 8.77467 5.14393 8.20584L10.1439 4.26834C11.2328 3.41088 12.7672 3.41088 13.8561 4.26833L18.8561 8.20584C19.5784 8.77467 20 9.64332 20 10.5627V17.8067C20 19.4635 18.6569 20.8067 17 20.8067H7C5.34315 20.8067 4 19.4635 4 17.8067V10.5627ZM18.5 10.5627V17.8067C18.5 18.6351 17.8284 19.3067 17 19.3067H7C6.17157 19.3067 5.5 18.6351 5.5 17.8067L5.5 10.5627C5.5 10.103 5.7108 9.66871 6.07197 9.38429L11.072 5.44679C11.6164 5.01806 12.3836 5.01806 12.928 5.44679L17.928 9.38429C18.2892 9.66871 18.5 10.103 18.5 10.5627Z" fill="#171C2B"/>
</svg>
