<svg viewBox="0 0 49 48" fill="none" xmlns="http://www.w3.org/2000/svg">
<g id="ic_hobby_fill_48">
<path id="Vector" d="M19.6308 30.9999L24.5 27.2999L29.2691 30.9614L27.4384 25.0461L32.3845 21.1846H26.4307L24.5 15.2308L22.5692 21.1846H16.6154L21.4615 25.0461L19.6308 30.9999ZM9.1154 38.9999C8.11797 38.9999 7.26605 38.6467 6.55965 37.9403C5.85322 37.2339 5.5 36.3819 5.5 35.3845V29.9039C5.5 29.5757 5.59423 29.2846 5.7827 29.0308C5.97117 28.7769 6.22308 28.6039 6.53845 28.5116C7.41538 28.1039 8.12822 27.4987 8.67695 26.6962C9.22565 25.8936 9.5 24.9948 9.5 24C9.5 23.0051 9.22565 22.1064 8.67695 21.3038C8.12822 20.5012 7.41538 19.8961 6.53845 19.4884C6.22308 19.3961 5.97117 19.223 5.7827 18.9692C5.59423 18.7153 5.5 18.4243 5.5 18.0961V12.6154C5.5 11.618 5.85322 10.766 6.55965 10.0596C7.26605 9.35322 8.11797 9 9.1154 9H39.8845C40.8819 9 41.7339 9.35322 42.4403 10.0596C43.1467 10.766 43.4999 11.618 43.4999 12.6154V18.0961C43.4999 18.4243 43.4057 18.7153 43.2172 18.9692C43.0287 19.223 42.7768 19.3961 42.4615 19.4884C41.5845 19.8961 40.8717 20.5012 40.323 21.3038C39.7743 22.1064 39.4999 23.0051 39.4999 24C39.4999 24.9948 39.7743 25.8936 40.323 26.6962C40.8717 27.4987 41.5845 28.1039 42.4615 28.5116C42.7768 28.6039 43.0287 28.7769 43.2172 29.0308C43.4057 29.2846 43.4999 29.5757 43.4999 29.9039V35.3845C43.4999 36.3819 43.1467 37.2339 42.4403 37.9403C41.7339 38.6467 40.8819 38.9999 39.8845 38.9999H9.1154Z" fill="currentColor"/>
</g>
</svg>
