<svg width="20" height="21" viewBox="0 0 20 21" fill="none" xmlns="http://www.w3.org/2000/svg">
<g id="ic_help_fill_24">
<path id="Vector" d="M9.99049 15.1794C10.2284 15.1794 10.4294 15.0972 10.5934 14.9329C10.7574 14.7686 10.8394 14.5675 10.8394 14.3296C10.8394 14.0916 10.7572 13.8907 10.5929 13.7267C10.4287 13.5627 10.2275 13.4807 9.98959 13.4807C9.75165 13.4807 9.55068 13.5628 9.3867 13.7271C9.2227 13.8914 9.1407 14.0925 9.1407 14.3305C9.1407 14.5684 9.22284 14.7694 9.38713 14.9334C9.55142 15.0974 9.75254 15.1794 9.99049 15.1794ZM9.4003 12.1954H10.5734C10.584 11.7851 10.6441 11.4574 10.7537 11.2122C10.8632 10.9671 11.1289 10.642 11.5509 10.2371C11.9174 9.87063 12.1981 9.53222 12.3931 9.22186C12.588 8.9115 12.6855 8.54497 12.6855 8.12229C12.6855 7.40503 12.4278 6.84474 11.9123 6.44142C11.3968 6.03811 10.7871 5.83646 10.083 5.83646C9.38749 5.83646 8.8119 6.02209 8.35624 6.39336C7.90058 6.76461 7.57554 7.20183 7.38109 7.70502L8.45157 8.1345C8.55307 7.85779 8.72668 7.5883 8.9724 7.32602C9.21814 7.06373 9.58299 6.93259 10.067 6.93259C10.5595 6.93259 10.9235 7.06747 11.1591 7.33725C11.3947 7.60702 11.5125 7.90376 11.5125 8.22748C11.5125 8.51059 11.4318 8.76967 11.2705 9.00471C11.1092 9.23975 10.9035 9.46679 10.6535 9.68582C10.1065 10.1794 9.76089 10.5731 9.61665 10.8669C9.47242 11.1607 9.4003 11.6035 9.4003 12.1954ZM10.001 18.4165C8.9061 18.4165 7.87691 18.2088 6.91347 17.7932C5.95001 17.3777 5.11194 16.8137 4.39926 16.1013C3.68656 15.389 3.12235 14.5513 2.70661 13.5882C2.29088 12.6252 2.08301 11.5962 2.08301 10.5013C2.08301 9.40635 2.29079 8.37715 2.70634 7.41371C3.1219 6.45025 3.68586 5.61218 4.39822 4.8995C5.11059 4.18681 5.94829 3.62259 6.91132 3.20686C7.87433 2.79112 8.90331 2.58325 9.99826 2.58325C11.0932 2.58325 12.1224 2.79103 13.0858 3.20659C14.0493 3.62214 14.8874 4.1861 15.6 4.89846C16.3127 5.61084 16.877 6.44854 17.2927 7.41157C17.7084 8.37458 17.9163 9.40356 17.9163 10.4985C17.9163 11.5934 17.7085 12.6226 17.293 13.5861C16.8774 14.5495 16.3135 15.3876 15.6011 16.1003C14.8887 16.813 14.051 17.3772 13.088 17.7929C12.125 18.2087 11.096 18.4165 10.001 18.4165Z" fill="#677389"/>
</g>
</svg>
