<svg width="24" height="24" viewBox="0 0 24 24" fill="none" xmlns="http://www.w3.org/2000/svg">
<g id="ic_ios_share_line_24">
<path id="Vector" d="M6.30776 22.3268C5.80263 22.3268 5.37506 22.1518 5.02506 21.8018C4.67506 21.4518 4.50006 21.0242 4.50006 20.5191V10.1346C4.50006 9.62943 4.67506 9.20186 5.02506 8.85186C5.37506 8.50186 5.80263 8.32686 6.30776 8.32686H8.86541V9.82684H6.30776C6.23083 9.82684 6.1603 9.85889 6.09619 9.92299C6.03209 9.98711 6.00004 10.0576 6.00004 10.1346V20.5191C6.00004 20.596 6.03209 20.6666 6.09619 20.7307C6.1603 20.7948 6.23083 20.8268 6.30776 20.8268H17.6923C17.7692 20.8268 17.8398 20.7948 17.9039 20.7307C17.968 20.6666 18 20.596 18 20.5191V10.1346C18 10.0576 17.968 9.98711 17.9039 9.92299C17.8398 9.85889 17.7692 9.82684 17.6923 9.82684H15.1347V8.32686H17.6923C18.1974 8.32686 18.625 8.50186 18.975 8.85186C19.325 9.20186 19.5 9.62943 19.5 10.1346V20.5191C19.5 21.0242 19.325 21.4518 18.975 21.8018C18.625 22.1518 18.1974 22.3268 17.6923 22.3268H6.30776V22.3268ZM11.2501 15.5768V4.54609L9.40004 6.39609L8.34621 5.32686L12 1.67307L15.6539 5.32686L14.6 6.39609L12.75 4.54606V15.5768L11.2501 15.5768Z" fill="#171C2B"/>
</g>
</svg>
