<svg xmlns="http://www.w3.org/2000/svg" viewBox="0 0 24 24" fill="none">
  <path d="M8.50008 10C9.3285 10 10.0001 9.32843 10.0001 8.5C10.0001 7.67157 9.3285 7 8.50008 7C7.67165 7 7.00008 7.67157 7.00008 8.5C7.00008 9.32843 7.67165 10 8.50008 10Z" fill="currentColor"/>
  <path fill-rule="evenodd" clip-rule="evenodd" d="M3.50008 6.5C3.50008 4.84315 4.84322 3.5 6.50008 3.5H17.5001C19.1569 3.5 20.5001 4.84315 20.5001 6.5V17.5C20.5001 19.1569 19.1569 20.5 17.5001 20.5H6.50008C4.84322 20.5 3.50008 19.1569 3.50008 17.5V6.5ZM6.50008 5H17.5001C18.3285 5 19.0001 5.67157 19.0001 6.5V10.7641L17.8337 9.40335C17.1323 8.58511 15.8652 8.58915 15.1691 9.41184L11.1296 14.1858C11.0351 14.2975 10.8654 14.3045 10.7619 14.2011L9.28623 12.7254C8.57042 12.0096 7.3984 12.0486 6.73179 12.8105L5.00008 14.7896V6.5C5.00008 5.67157 5.67165 5 6.50008 5ZM5.00008 17.059V17.5C5.00008 18.3284 5.67165 19 6.50008 19H17.5001C18.3285 19 19.0001 18.3284 19.0001 17.5V13.059C18.9757 13.0372 18.9525 13.0135 18.9306 12.988L16.6948 10.3795C16.5946 10.2626 16.4136 10.2632 16.3142 10.3808L12.2746 15.1547C11.6133 15.9363 10.4252 15.9857 9.70127 15.2618L8.22557 13.7861C8.12331 13.6838 7.95588 13.6894 7.86065 13.7982L5.06452 16.9938C5.04411 17.0171 5.02258 17.0389 5.00008 17.059Z" fill="currentColor"/>
</svg>