<svg width=auto height=auto viewBox="0 0 25 24" fill="none" xmlns="http://www.w3.org/2000/svg">
<g id="ic_image_line_24">
<path id="Vector" d="M5.76919 20.5C5.26405 20.5 4.83649 20.325 4.48649 19.975C4.13649 19.625 3.96149 19.1974 3.96149 18.6923V5.3077C3.96149 4.80257 4.13649 4.375 4.48649 4.025C4.83649 3.675 5.26405 3.5 5.76919 3.5H19.1537C19.6589 3.5 20.0864 3.675 20.4364 4.025C20.7864 4.375 20.9614 4.80257 20.9614 5.3077V18.6923C20.9614 19.1974 20.7864 19.625 20.4364 19.975C20.0864 20.325 19.6589 20.5 19.1537 20.5H5.76919ZM5.76919 19H19.1537C19.2307 19 19.3012 18.9679 19.3653 18.9038C19.4294 18.8397 19.4615 18.7692 19.4615 18.6923V5.3077C19.4615 5.23077 19.4294 5.16024 19.3653 5.09613C19.3012 5.03203 19.2307 4.99998 19.1537 4.99998H5.76919C5.69225 4.99998 5.62173 5.03203 5.55761 5.09613C5.49351 5.16024 5.46146 5.23077 5.46146 5.3077V18.6923C5.46146 18.7692 5.49351 18.8397 5.55761 18.9038C5.62173 18.9679 5.69225 19 5.76919 19ZM7.21151 16.75H17.7883L14.4999 12.3654L11.6922 16.0192L9.69224 13.4616L7.21151 16.75ZM8.96146 9.74995C9.30761 9.74995 9.60248 9.62816 9.84606 9.38458C10.0896 9.14099 10.2114 8.84613 10.2114 8.49998C10.2114 8.15383 10.0896 7.85896 9.84606 7.61538C9.60248 7.37179 9.30761 7.25 8.96146 7.25C8.61531 7.25 8.32045 7.37179 8.07686 7.61538C7.83328 7.85896 7.71149 8.15383 7.71149 8.49998C7.71149 8.84613 7.83328 9.14099 8.07686 9.38458C8.32045 9.62816 8.61531 9.74995 8.96146 9.74995Z" fill="#677389"/>
</g>
</svg>
