<svg width="24" height="24" viewBox="0 0 24 24" fill="none" xmlns="http://www.w3.org/2000/svg">
<path d="M6.3077 21.75C5.81058 21.75 5.38502 21.573 5.03102 21.2189C4.67701 20.8649 4.5 20.4394 4.5 19.9423V10.5577C4.5 10.0606 4.67701 9.63504 5.03102 9.28104C5.38502 8.92702 5.81058 8.75001 6.3077 8.75001H7.5V6.75001C7.5 5.50131 7.93782 4.43915 8.81345 3.56351C9.6891 2.68788 10.7513 2.25006 12 2.25006C13.2487 2.25006 14.3109 2.68788 15.1865 3.56351C16.0621 4.43915 16.5 5.50131 16.5 6.75001V8.75001H17.6922C18.1894 8.75001 18.6149 8.92702 18.9689 9.28104C19.3229 9.63504 19.5 10.0606 19.5 10.5577V19.9423C19.5 20.4394 19.3229 20.8649 18.9689 21.2189C18.6149 21.573 18.1894 21.75 17.6922 21.75H6.3077ZM12 17C12.4859 17 12.899 16.8298 13.2394 16.4894C13.5798 16.149 13.75 15.7359 13.75 15.25C13.75 14.7641 13.5798 14.351 13.2394 14.0106C12.899 13.6702 12.4859 13.5 12 13.5C11.5141 13.5 11.1009 13.6702 10.7606 14.0106C10.4202 14.351 10.25 14.7641 10.25 15.25C10.25 15.7359 10.4202 16.149 10.7606 16.4894C11.1009 16.8298 11.5141 17 12 17ZM8.99997 8.75001H15V6.75001C15 5.91668 14.7083 5.20834 14.125 4.62501C13.5416 4.04168 12.8333 3.75001 12 3.75001C11.1666 3.75001 10.4583 4.04168 9.87497 4.62501C9.29164 5.20834 8.99997 5.91668 8.99997 6.75001V8.75001Z" fill="#F8FAFC"/>
</svg>
