<svg viewBox="0 0 40 40" fill="none" xmlns="http://www.w3.org/2000/svg">
<rect width="40" height="40" rx="20" fill="black"/>
<path d="M19.7227 14.3846C20.5547 14.3846 21.5977 13.8048 22.2188 13.0318C22.7812 12.3312 23.1914 11.3528 23.1914 10.3744C23.1914 10.2416 23.1797 10.1087 23.1562 10C22.2305 10.0362 21.1172 10.6402 20.4492 11.4495C19.9219 12.0655 19.4414 13.0318 19.4414 14.0223C19.4414 14.1672 19.4648 14.3121 19.4766 14.3605C19.5352 14.3725 19.6289 14.3846 19.7227 14.3846ZM16.793 29C17.9297 29 18.4336 28.2149 19.8516 28.2149C21.293 28.2149 21.6094 28.9758 22.875 28.9758C24.1172 28.9758 24.9492 27.7921 25.7344 26.6325C26.6133 25.3039 26.9766 23.9994 27 23.939C26.918 23.9148 24.5391 22.9123 24.5391 20.0979C24.5391 17.658 26.4141 16.5588 26.5195 16.4743C25.2773 14.6383 23.3906 14.59 22.875 14.59C21.4805 14.59 20.3438 15.4596 19.6289 15.4596C18.8555 15.4596 17.8359 14.6383 16.6289 14.6383C14.332 14.6383 12 16.595 12 20.2912C12 22.5861 12.8672 25.014 13.9336 26.5842C14.8477 27.9129 15.6445 29 16.793 29Z" fill="white"/>
</svg>
