<svg viewBox="0 0 40 40" fill="none" xmlns="http://www.w3.org/2000/svg">
<rect x="0.5" y="0.5" width="39" height="39" rx="19.5" fill="white"/>
<rect x="0.5" y="0.5" width="39" height="39" rx="19.5" stroke="#D3D9E2"/>
<path fill-rule="evenodd" clip-rule="evenodd" d="M28.64 20.2047C28.64 19.5665 28.5827 18.9529 28.4764 18.3638H20V21.8451H24.8436C24.635 22.9701 24.0009 23.9233 23.0477 24.5615V26.8197H25.9564C27.6582 25.2529 28.64 22.9456 28.64 20.2047Z" fill="#4285F4"/>
<path fill-rule="evenodd" clip-rule="evenodd" d="M20 29C22.43 29 24.4673 28.1941 25.9564 26.8195L23.0477 24.5613C22.2418 25.1013 21.2109 25.4204 20 25.4204C17.6559 25.4204 15.6718 23.8372 14.9641 21.71H11.9573V24.0418C13.4382 26.9831 16.4818 29 20 29Z" fill="#34A853"/>
<path fill-rule="evenodd" clip-rule="evenodd" d="M14.9641 21.7098C14.7841 21.1698 14.6818 20.593 14.6818 19.9998C14.6818 19.4066 14.7841 18.8298 14.9641 18.2898V15.958H11.9573C11.3477 17.173 11 18.5476 11 19.9998C11 21.4521 11.3477 22.8266 11.9573 24.0416L14.9641 21.7098Z" fill="#FBBC05"/>
<path fill-rule="evenodd" clip-rule="evenodd" d="M20 14.5795C21.3214 14.5795 22.5077 15.0336 23.4405 15.9255L26.0218 13.3441C24.4632 11.8918 22.4259 11 20 11C16.4818 11 13.4382 13.0168 11.9573 15.9582L14.9641 18.29C15.6718 16.1627 17.6559 14.5795 20 14.5795Z" fill="#EA4335"/>
</svg>
