<svg xmlns="http://www.w3.org/2000/svg" viewBox="0 0 20 20" fill="none">
  <g clip-path="url(#clip0_2247_67363)">
    <path d="M9.85968 19.2307L14.0635 8.15386H15.9904L20.1942 19.2307H18.2673L17.2943 16.4115H12.8097L11.8058 19.2307H9.85968ZM13.3712 14.7961H16.6827L15.0674 10.2308H14.9866L13.3712 14.7961ZM2.57511 16.4615L1.27128 15.1577L5.93663 10.4923C5.35458 9.85001 4.84529 9.18271 4.40876 8.49041C3.97223 7.79811 3.59178 7.07055 3.26743 6.30774H5.19433C5.4751 6.86285 5.77189 7.36125 6.08471 7.80291C6.39753 8.24458 6.77637 8.71285 7.22123 9.20771C7.90328 8.46541 8.46835 7.70708 8.91643 6.93271C9.3645 6.15836 9.73918 5.33465 10.0405 4.46159H-0.194092V2.61544H6.26741V0.769287H8.11356V2.61544H14.5751V4.46159H11.8866C11.5622 5.54875 11.1241 6.6074 10.5722 7.63754C10.0203 8.66765 9.3379 9.63591 8.52508 10.5423L10.7328 12.8L10.0405 14.6961L7.19048 11.8462L2.57511 16.4615Z" fill="currentColor"/>
  </g>
  <defs>
    <clipPath id="clip0_2247_67363">
      <rect width="20" height="20" fill="white"/>
    </clipPath>
  </defs>
</svg>