<svg width="48" height="48" viewBox="0 0 48 48" fill="none" xmlns="http://www.w3.org/2000/svg">
<path d="M20.436 21.2557V31.8634C20.436 34.2261 22.3486 36.1387 24.7113 36.1387H32.7796L36.8137 40.1327C37.6093 40.9202 38.9674 40.3577 38.9674 39.2326V36.1387C41.3301 36.1387 43.2427 34.2261 43.2427 31.8634V21.2557C43.2427 18.8931 41.3301 16.9805 38.9674 16.9805H24.7113C22.3486 16.9805 20.436 18.8931 20.436 21.2557Z" fill="#FFB200"/>
<path d="M27.4836 30.5052L30.3606 22.2039C30.6579 21.3521 31.4535 20.7815 32.3536 20.7815C33.2536 20.7815 34.0572 21.3521 34.3465 22.2039L37.2074 30.4972C37.4726 31.2607 36.902 32.0643 36.0904 32.0643C35.5841 32.0643 35.126 31.7348 34.9733 31.2526L34.3867 29.4605H30.3043L29.7177 31.2526C29.557 31.7348 29.1069 32.0643 28.6007 32.0643H28.5846C27.7729 32.0643 27.2024 31.2687 27.4676 30.4972L27.4836 30.5052ZM33.8081 27.6444L32.4018 23.329H32.3214L30.9151 27.6444H33.8161H33.8081Z" fill="#FFF8E9"/>
<path d="M28.0784 22.3887C28.0784 22.3887 27.9418 29.2757 20.436 31.6464V21.2476L28.0784 22.3887Z" fill="#F58D06"/>
<path d="M28.0783 11.781V22.3887C28.0783 24.7513 26.1657 26.6639 23.803 26.6639H15.2204L11.1863 30.6579C10.3907 31.4455 9.03256 30.8829 9.03256 29.7579V26.6639C6.66993 26.6639 4.75732 24.7513 4.75732 22.3887V11.781C4.75732 9.41834 6.66993 7.50574 9.03256 7.50574H23.803C26.1657 7.50574 28.0783 9.41834 28.0783 11.781Z" fill="#FFDE7E"/>
<path d="M15.6463 13.9025H12.5524C12.1988 13.9025 11.9095 13.6132 11.9095 13.2596C11.9095 12.906 12.1988 12.6167 12.5524 12.6167H16.5785C16.9481 12.6167 17.2374 12.9221 17.2214 13.2918C17.0526 16.1767 15.8231 18.6921 12.7372 20.4118C12.4157 20.5966 12.0059 20.5002 11.7809 20.2029V20.1868C11.5077 19.8332 11.6202 19.335 11.9979 19.1099C14.1837 17.8242 15.3811 16.1526 15.6463 13.8864V13.9025ZM20.4198 15.7749H21.5609C21.9386 15.7749 22.244 16.0803 22.244 16.458C22.244 16.8357 21.9386 17.1411 21.5609 17.1411H20.4198V21.6815C20.4198 22.1155 20.0662 22.4691 19.6322 22.4691C19.1983 22.4691 18.8447 22.1155 18.8447 21.6815V12.2631C18.8447 11.8292 19.1983 11.4756 19.6322 11.4756C20.0662 11.4756 20.4198 11.8292 20.4198 12.2631V15.7749Z" fill="#FFA200"/>
</svg>
