<svg viewBox="0 0 48 48" fill="none" xmlns="http://www.w3.org/2000/svg">
<g id="ic_language_exchange_fill_48">
<path id="Vector" d="M14.2309 35.0768C13.7296 35.0768 13.3094 34.9072 12.9703 34.5681C12.6312 34.229 12.4616 33.8089 12.4616 33.3076V30.3076H37.2116L37.8462 30.9423V12.8461H40.8461C41.3474 12.8461 41.7676 13.0157 42.1067 13.3548C42.4458 13.6939 42.6154 14.1141 42.6154 14.6153V42.1536L35.5385 35.0768H14.2309ZM5.38477 33.3845V7.61544C5.38477 7.11414 5.55432 6.69394 5.89342 6.35484C6.23252 6.01574 6.65272 5.84619 7.15402 5.84619H32.077C32.5783 5.84619 32.9985 6.01574 33.3376 6.35484C33.6767 6.69394 33.8462 7.11414 33.8462 7.61544V24.5384C33.8462 25.0397 33.6767 25.4599 33.3376 25.799C32.9985 26.1381 32.5783 26.3076 32.077 26.3076H12.4616L5.38477 33.3845Z" fill="currentColor"/>
</g>
</svg>
