<svg width="25" height="24" viewBox="0 0 25 24" fill="none" xmlns="http://www.w3.org/2000/svg">
<g id="ic_logout_off_line_24">
<path id="Vector" d="M5.76919 20.5C5.26405 20.5 4.83649 20.325 4.48649 19.975C4.13649 19.625 3.96149 19.1974 3.96149 18.6923V5.3077C3.96149 4.80257 4.13649 4.375 4.48649 4.025C4.83649 3.675 5.26405 3.5 5.76919 3.5H12.4711V4.99998H5.76919C5.69225 4.99998 5.62173 5.03203 5.55761 5.09613C5.49351 5.16024 5.46146 5.23077 5.46146 5.3077V18.6923C5.46146 18.7692 5.49351 18.8397 5.55761 18.9038C5.62173 18.9679 5.69225 19 5.76919 19H12.4711V20.5H5.76919ZM16.6922 16.2692L15.6538 15.1846L18.0884 12.75H9.55761V11.25H18.0884L15.6538 8.81538L16.6922 7.7308L20.9614 12L16.6922 16.2692Z" fill="#677389"/>
</g>
</svg>
