<svg width="20" height="20" viewBox="0 0 20 20" fill="none" xmlns="http://www.w3.org/2000/svg">
<g id="icon grid">
<g id="Group 36">
<path id="Subtract" fill-rule="evenodd" clip-rule="evenodd" d="M10.0002 16.4877C10.8184 16.4877 11.606 16.3648 12.3432 16.1377L14.9939 17.3706C15.7009 17.6995 16.4956 17.1285 16.4095 16.3535L16.0981 13.5508C16.9806 12.3977 17.5001 10.9839 17.5001 9.45648C17.5001 5.57326 14.1423 2.42529 10.0002 2.42529C5.85808 2.42529 2.50024 5.57326 2.50024 9.45648C2.50024 13.3397 5.85808 16.4877 10.0002 16.4877ZM10.0001 5.54154C10.2153 5.54154 10.41 5.66894 10.4963 5.8661L13.0484 11.6994C13.1683 11.9735 13.0433 12.2929 12.7692 12.4128C12.4952 12.5327 12.1758 12.4077 12.0559 12.1337L11.5599 10.9999H8.44023L7.94422 12.1337C7.82432 12.4077 7.50493 12.5327 7.23086 12.4128C6.95679 12.2929 6.83181 11.9735 6.95172 11.6994L9.5038 5.8661C9.59006 5.66894 9.78485 5.54154 10.0001 5.54154ZM10.0001 7.43461L11.0859 9.91659H8.91419L10.0001 7.43461Z" fill="#677389"/>
</g>
</g>
</svg>
