<svg viewBox="0 0 40 40" fill="none" xmlns="http://www.w3.org/2000/svg">
<rect width="40" height="40" rx="20" fill="#F1F4F9"/>
<path fill-rule="evenodd" clip-rule="evenodd" d="M10 15.5C10 13.8431 11.3431 12.5 13 12.5H27C28.6569 12.5 30 13.8431 30 15.5V24.5C30 26.1569 28.6569 27.5 27 27.5H13C11.3431 27.5 10 26.1569 10 24.5V15.5ZM13 14H27C27.5003 14 27.9433 14.2449 28.2158 14.6213L19.9999 20.0986L11.7841 14.6214C12.0566 14.2449 12.4997 14 13 14ZM11.5 16.2348V24.5C11.5 25.3284 12.1716 26 13 26H27C27.8284 26 28.5 25.3284 28.5 24.5V16.2347L20.4159 21.624C20.164 21.792 19.8358 21.792 19.5839 21.624L11.5 16.2348Z" fill="#677389"/>
</svg>
