<svg viewBox="0 0 24 24" fill="none" xmlns="http://www.w3.org/2000/svg">
<g id="ic_megaphone_fill_24">
<g id="Vector">
<path d="M15.0066 16.7079C15.6733 17.086 16.5 16.6045 16.5 15.8381L16.5 5.71692C16.5 4.9505 15.6733 4.46897 15.0066 4.84711L9.70827 7.85251L5.8009 8.11651C4.50515 8.20406 3.5 9.25229 3.5 10.516V11.039C3.5 12.3027 4.50515 13.3509 5.8009 13.4385L5.97217 13.45V19.7974C5.97217 20.4616 6.52558 21 7.20825 21C7.89092 21 8.44433 20.4616 8.44433 19.7974V13.6171L9.70827 13.7025L15.0066 16.7079Z" fill="currentColor"/>
<path d="M18 12.8151C18 13.4346 18.5679 13.9126 19.1274 13.6468C20.2477 13.1146 21 12.1285 21 11C21 9.8715 20.2477 8.8854 19.1274 8.35323C18.5679 8.08745 18 8.56546 18 9.1849L18 12.8151Z" fill="#5B5DE3"/>
</g>
</g>
</svg>
