<svg width="25" height="24" viewBox="0 0 25 24" fill="none" xmlns="http://www.w3.org/2000/svg">
<g id="ic_more_horiz_line_24">
<path id="Vector" d="M6.69227 13.5C6.27979 13.5 5.92667 13.3531 5.63292 13.0593C5.33919 12.7656 5.19232 12.4125 5.19232 12C5.19232 11.5875 5.33919 11.2344 5.63292 10.9406C5.92667 10.6469 6.27979 10.5 6.69227 10.5C7.10477 10.5 7.45789 10.6469 7.75162 10.9406C8.04537 11.2344 8.19225 11.5875 8.19225 12C8.19225 12.4125 8.04537 12.7656 7.75162 13.0593C7.45789 13.3531 7.10477 13.5 6.69227 13.5ZM12.4615 13.5C12.049 13.5 11.6959 13.3531 11.4021 13.0593C11.1084 12.7656 10.9615 12.4125 10.9615 12C10.9615 11.5875 11.1084 11.2344 11.4021 10.9406C11.6959 10.6469 12.049 10.5 12.4615 10.5C12.874 10.5 13.2271 10.6469 13.5208 10.9406C13.8146 11.2344 13.9615 11.5875 13.9615 12C13.9615 12.4125 13.8146 12.7656 13.5208 13.0593C13.2271 13.3531 12.874 13.5 12.4615 13.5ZM18.2307 13.5C17.8182 13.5 17.4651 13.3531 17.1714 13.0593C16.8776 12.7656 16.7307 12.4125 16.7307 12C16.7307 11.5875 16.8776 11.2344 17.1714 10.9406C17.4651 10.6469 17.8182 10.5 18.2307 10.5C18.6432 10.5 18.9963 10.6469 19.2901 10.9406C19.5838 11.2344 19.7307 11.5875 19.7307 12C19.7307 12.4125 19.5838 12.7656 19.2901 13.0593C18.9963 13.3531 18.6432 13.5 18.2307 13.5Z" fill="#141B2E"/>
</g>
</svg>
