<svg width="25" height="24" viewBox="0 0 25 24" fill="none" xmlns="http://www.w3.org/2000/svg">
<g id="ic_notifications_line_24">
<path id="Vector" d="M4.96155 18.8846V17.3846H6.76925V9.92305C6.76925 8.57818 7.18431 7.38908 8.01442 6.35575C8.84456 5.32242 9.91026 4.66153 11.2115 4.37308V3.75C11.2115 3.40278 11.333 3.10765 11.5758 2.8646C11.8186 2.62153 12.1135 2.5 12.4604 2.5C12.8073 2.5 13.1025 2.62153 13.3461 2.8646C13.5897 3.10765 13.7115 3.40278 13.7115 3.75V4.37308C15.0128 4.66153 16.0785 5.32242 16.9086 6.35575C17.7387 7.38908 18.1538 8.57818 18.1538 9.92305V17.3846H19.9615V18.8846H4.96155ZM12.4598 21.6923C11.9622 21.6923 11.5368 21.5153 11.1836 21.1613C10.8304 20.8073 10.6538 20.3817 10.6538 19.8846H14.2692C14.2692 20.3833 14.092 20.8093 13.7377 21.1625C13.3834 21.5157 12.9574 21.6923 12.4598 21.6923ZM8.2692 17.3846H16.6538V9.92305C16.6538 8.76535 16.2445 7.77721 15.4259 6.95863C14.6074 6.14003 13.6192 5.73073 12.4615 5.73073C11.3038 5.73073 10.3157 6.14003 9.4971 6.95863C8.6785 7.77721 8.2692 8.76535 8.2692 9.92305V17.3846Z" fill="#677389"/>
</g>
</svg>
