<svg viewBox="0 0 24 24" fill="none" xmlns="http://www.w3.org/2000/svg">
<g id="ic_notifications_line_24">
<g id="Vector">
<path fill-rule="evenodd" clip-rule="evenodd" d="M13.0001 4C13.0001 3.44772 12.5523 3 12.0001 3C11.4478 3 11.0001 3.44772 11.0001 4V4.08474C8.23086 4.55947 6.1235 6.9719 6.1235 9.87654V13.872C6.1235 13.9552 6.09721 14.0363 6.04837 14.1037L4.79993 15.8264C3.84167 17.1487 4.78637 19 6.41939 19H17.5807C19.2137 19 20.1584 17.1487 19.2002 15.8264L17.9517 14.1037C17.9029 14.0363 17.8766 13.9552 17.8766 13.872V9.87654C17.8766 6.97191 15.7692 4.55948 13.0001 4.08474V4ZM16.3766 13.872V9.87654C16.3766 7.45944 14.4171 5.5 12 5.5C9.58295 5.5 7.6235 7.45944 7.6235 9.87654V13.872C7.6235 14.2713 7.49732 14.6605 7.26296 14.9839L6.01453 16.7066C5.77496 17.0372 6.01113 17.5 6.41939 17.5H17.5807C17.989 17.5 18.2251 17.0372 17.9856 16.7066L16.7371 14.9839C16.5028 14.6605 16.3766 14.2713 16.3766 13.872Z" fill="currentColor"/>
<path d="M9.25006 21C9.25006 20.5858 9.58585 20.25 10.0001 20.25H14.0001C14.4143 20.25 14.7501 20.5858 14.7501 21C14.7501 21.4142 14.4143 21.75 14.0001 21.75H10.0001C9.58585 21.75 9.25006 21.4142 9.25006 21Z" fill="#171C2B"/>
</g>
</g>
</svg>
