<svg width="49" height="48" viewBox="0 0 49 48" fill="none" xmlns="http://www.w3.org/2000/svg">
<g id="Group 22">
<path id="Vector" d="M4.36977 40.994C1.57767 40.2596 -0.155817 37.4079 0.558749 34.6092C2.92079 25.2669 11.4956 18.3396 21.7112 18.3396C31.9269 18.3396 40.5149 25.2735 42.8703 34.6357C43.5717 37.4278 41.8647 40.2662 39.0858 41.0138C27.8644 44.0375 16.0476 44.0706 4.81307 41.1131L4.36977 40.994Z" fill="#DFE5EE"/>
<path id="Vector_2" d="M21.7112 22.5278C28.2118 22.5278 33.4817 17.5216 33.4817 11.3462C33.4817 5.17074 28.2118 0.164551 21.7112 0.164551C15.2105 0.164551 9.94067 5.17074 9.94067 11.3462C9.94067 17.5216 15.2105 22.5278 21.7112 22.5278Z" fill="#DFE5EE"/>
<path id="Vector_3" d="M18.6811 12.0277C19.3644 12.0277 19.9184 11.2575 19.9184 10.3074C19.9184 9.35734 19.3644 8.58716 18.6811 8.58716C17.9978 8.58716 17.4438 9.35734 17.4438 10.3074C17.4438 11.2575 17.9978 12.0277 18.6811 12.0277Z" fill="#ADB6C4"/>
<path id="Vector_4" d="M24.7482 12.0277C25.4316 12.0277 25.9855 11.2575 25.9855 10.3074C25.9855 9.35734 25.4316 8.58716 24.7482 8.58716C24.0649 8.58716 23.511 9.35734 23.511 10.3074C23.511 11.2575 24.0649 12.0277 24.7482 12.0277Z" fill="#ADB6C4"/>
<path id="Vector_5" d="M36.0421 47.8882C43.0032 47.8882 48.6463 42.3933 48.6463 35.6149C48.6463 28.8365 43.0032 23.3416 36.0421 23.3416C29.0811 23.3416 23.438 28.8365 23.438 35.6149C23.438 42.3933 29.0811 47.8882 36.0421 47.8882Z" fill="#B6BFCE"/>
<path id="Vector_6" d="M31.1329 37.0244C31.9112 37.0244 32.5422 36.3934 32.5422 35.6151C32.5422 34.8368 31.9112 34.2058 31.1329 34.2058C30.3546 34.2058 29.7236 34.8368 29.7236 35.6151C29.7236 36.3934 30.3546 37.0244 31.1329 37.0244Z" fill="url(#paint0_linear_4253_4422)"/>
<path id="Vector_7" d="M36.0423 37.0244C36.8207 37.0244 37.4516 36.3934 37.4516 35.6151C37.4516 34.8368 36.8207 34.2058 36.0423 34.2058C35.264 34.2058 34.6331 34.8368 34.6331 35.6151C34.6331 36.3934 35.264 37.0244 36.0423 37.0244Z" fill="url(#paint1_linear_4253_4422)"/>
<path id="Vector_8" d="M40.9581 37.0244C41.7364 37.0244 42.3674 36.3934 42.3674 35.6151C42.3674 34.8368 41.7364 34.2058 40.9581 34.2058C40.1798 34.2058 39.5488 34.8368 39.5488 35.6151C39.5488 36.3934 40.1798 37.0244 40.9581 37.0244Z" fill="url(#paint2_linear_4253_4422)"/>
</g>
<defs>
<linearGradient id="paint0_linear_4253_4422" x1="64.4463" y1="21.6877" x2="32.6282" y2="34.9865" gradientUnits="userSpaceOnUse">
<stop stop-color="white" stop-opacity="0"/>
<stop offset="1" stop-color="white"/>
</linearGradient>
<linearGradient id="paint1_linear_4253_4422" x1="65.4785" y1="23.3087" x2="33.6671" y2="36.6075" gradientUnits="userSpaceOnUse">
<stop stop-color="white" stop-opacity="0"/>
<stop offset="1" stop-color="white"/>
</linearGradient>
<linearGradient id="paint2_linear_4253_4422" x1="66.5105" y1="24.9297" x2="34.699" y2="38.2286" gradientUnits="userSpaceOnUse">
<stop stop-color="white" stop-opacity="0"/>
<stop offset="1" stop-color="white"/>
</linearGradient>
</defs>
</svg>
