<svg viewBox="0 0 33 32" fill="none" xmlns="http://www.w3.org/2000/svg">
<g id="ic_person_fill_24">
<path id="Vector" d="M16.6001 15.5897C15.3168 15.5897 14.2182 15.1328 13.3043 14.2189C12.3904 13.305 11.9334 12.2064 11.9334 10.9231C11.9334 9.63977 12.3904 8.54117 13.3043 7.6273C14.2182 6.71341 15.3168 6.25647 16.6001 6.25647C17.8834 6.25647 18.982 6.71341 19.8959 7.6273C20.8098 8.54117 21.2667 9.63977 21.2667 10.9231C21.2667 12.2064 20.8098 13.305 19.8959 14.2189C18.982 15.1328 17.8834 15.5897 16.6001 15.5897ZM6.6001 25.7435V22.7795C6.6001 22.1265 6.77745 21.5218 7.13216 20.9654C7.48685 20.409 7.96078 19.9812 8.55393 19.6821C9.87189 19.0359 11.2014 18.5513 12.5424 18.2282C13.8834 17.9052 15.236 17.7436 16.6001 17.7436C17.9642 17.7436 19.3167 17.9052 20.6577 18.2282C21.9988 18.5513 23.3282 19.0359 24.6462 19.6821C25.2394 19.9812 25.7133 20.409 26.068 20.9654C26.4227 21.5218 26.6 22.1265 26.6 22.7795V25.7435H6.6001Z" fill="currentColor"/>
</g>
</svg>
