<svg xmlns="http://www.w3.org/2000/svg" viewBox="0 0 20 20" fill="none">
  <path d="M10.0017 9.88771C10.4163 9.88771 10.7708 9.74007 11.0651 9.44479C11.3595 9.14952 11.5066 8.79455 11.5066 8.3799C11.5066 7.96525 11.359 7.61075 11.0637 7.31642C10.7684 7.02209 10.4135 6.87492 9.99883 6.87492C9.58418 6.87492 9.22968 7.02256 8.93535 7.31784C8.64102 7.61311 8.49385 7.96808 8.49385 8.38273C8.49385 8.79738 8.64149 9.15188 8.93677 9.44621C9.23205 9.74054 9.58701 9.88771 10.0017 9.88771ZM10.0002 16.2611C11.6306 14.8017 12.8782 13.4019 13.743 12.0616C14.6079 10.7213 15.0403 9.54745 15.0403 8.53996C15.0403 7.02074 14.5577 5.77181 13.5924 4.79317C12.6271 3.81453 11.4297 3.32521 10.0002 3.32521C8.57076 3.32521 7.37338 3.81453 6.4081 4.79317C5.44282 5.77181 4.96018 7.02074 4.96018 8.53996C4.96018 9.54745 5.39261 10.7213 6.25746 12.0616C7.12232 13.4019 8.36991 14.8017 10.0002 16.2611ZM10.0002 17.9245C7.90304 16.1072 6.33039 14.416 5.28231 12.8509C4.23424 11.2857 3.71021 9.84872 3.71021 8.53996C3.71021 6.6169 4.33227 5.06002 5.57639 3.86931C6.8205 2.67861 8.29512 2.08325 10.0002 2.08325C11.7054 2.08325 13.18 2.67861 14.4241 3.86931C15.6682 5.06002 16.2903 6.6169 16.2903 8.53996C16.2903 9.84872 15.7663 11.2857 14.7182 12.8509C13.6701 14.416 12.0975 16.1072 10.0002 17.9245Z" fill="currentColor"/>
</svg>