<svg width="16" height="17" viewBox="0 0 16 17" fill="none" xmlns="http://www.w3.org/2000/svg">
<g id="ic_pin_fill_24">
<path id="Vector" fill-rule="evenodd" clip-rule="evenodd" d="M4.11436 3.69111C5.18488 2.55962 6.59726 2.00969 8.00008 2.04133C9.40291 2.00969 10.8153 2.55962 11.8858 3.69111C13.9686 5.89254 13.657 9.3462 11.8858 11.6632C10.907 12.9436 9.82332 13.9419 9.04963 14.5789C8.43236 15.0871 7.5678 15.0871 6.95054 14.5789C6.17684 13.9419 5.09318 12.9436 4.11436 11.6632C2.34314 9.3462 2.03156 5.89254 4.11436 3.69111ZM8.00008 9.37337C8.92056 9.37337 9.66675 8.62718 9.66675 7.70671C9.66675 6.78623 8.92056 6.04004 8.00008 6.04004C7.07961 6.04004 6.33341 6.78623 6.33341 7.70671C6.33341 8.62718 7.07961 9.37337 8.00008 9.37337Z" fill="#677389"/>
</g>
</svg>
