<svg width="53" height="46" viewBox="0 0 53 46" fill="none" xmlns="http://www.w3.org/2000/svg">
<g id="Group 23">
<path id="Vector" d="M4.62306 42.4356C1.75818 41.6813 -0.0150052 38.7569 0.712794 35.8854C3.13438 26.3049 11.9275 19.2056 22.4012 19.2056C32.8749 19.2056 41.6813 26.3181 44.0962 35.9119C44.8174 38.7767 43.0641 41.6813 40.219 42.4554C28.7198 45.5585 16.6053 45.5916 5.0862 42.5547L4.62968 42.4356H4.62306Z" fill="#DFE5EE"/>
<path id="Vector_2" d="M22.4012 23.5061C29.0663 23.5061 34.4695 18.3726 34.4695 12.04C34.4695 5.70742 29.0663 0.573853 22.4012 0.573853C15.7361 0.573853 10.333 5.70742 10.333 12.04C10.333 18.3726 15.7361 23.5061 22.4012 23.5061Z" fill="#DFE5EE"/>
<path id="Vector_3" d="M20.4625 12.7413C21.1641 12.7413 21.7328 11.9534 21.7328 10.9814C21.7328 10.0094 21.1641 9.22144 20.4625 9.22144C19.7609 9.22144 19.1921 10.0094 19.1921 10.9814C19.1921 11.9534 19.7609 12.7413 20.4625 12.7413Z" fill="#ADB6C4"/>
<path id="Vector_4" d="M26.682 12.7413C27.3835 12.7413 27.9523 11.9534 27.9523 10.9814C27.9523 10.0094 27.3835 9.22144 26.682 9.22144C25.9804 9.22144 25.4116 10.0094 25.4116 10.9814C25.4116 11.9534 25.9804 12.7413 26.682 12.7413Z" fill="#ADB6C4"/>
<path id="Vector_5" d="M41.5093 45.4724C47.5751 45.4724 52.4924 40.6855 52.4924 34.7804C52.4924 28.8754 47.5751 24.0884 41.5093 24.0884C35.4434 24.0884 30.5261 28.8754 30.5261 34.7804C30.5261 40.6855 35.4434 45.4724 41.5093 45.4724Z" fill="#B6BFCE"/>
<path id="Vector_6" d="M42.2833 40.411C41.7407 40.411 41.2974 39.9677 41.2974 39.4251V32.4647C40.3579 33.1727 39.4779 33.4638 39.4118 33.4836C38.8891 33.649 38.3399 33.3645 38.1745 32.8485C38.0091 32.3324 38.2936 31.7766 38.8097 31.6112C38.8361 31.6046 40.6689 30.976 41.3768 29.3484C41.5621 28.9183 42.0318 28.6802 42.4817 28.7728C42.9383 28.8654 43.2691 29.269 43.2691 29.7388V39.4317C43.2691 39.9743 42.8258 40.4176 42.2833 40.4176V40.411Z" fill="url(#paint0_linear_4197_3737)"/>
</g>
<defs>
<linearGradient id="paint0_linear_4197_3737" x1="57.8912" y1="56.0851" x2="38.9817" y2="30.0233" gradientUnits="userSpaceOnUse">
<stop stop-color="white" stop-opacity="0"/>
<stop offset="1" stop-color="white"/>
</linearGradient>
</defs>
</svg>
