<svg xmlns="http://www.w3.org/2000/svg" viewBox="0 0 48 48" fill="none">
  <path d="M8.80581 41.4043L6.69821 39.2966L27.0828 18.912C26.4443 17.4095 26.329 15.8293 26.7367 14.1716C27.1443 12.514 28.0494 11.0044 29.452 9.64282C30.9879 8.10692 32.7879 7.13769 34.852 6.73512C36.9161 6.33255 38.6186 6.80179 39.9597 8.14282C41.3007 9.48382 41.7699 11.1864 41.3673 13.2505C40.9647 15.3146 39.9955 17.1146 38.4597 18.6504C37.0981 20.053 35.5885 20.9581 33.9308 21.3658C32.2731 21.7735 30.693 21.6581 29.1905 21.0197L26.1135 24.0966L41.3135 39.2966L39.2058 41.4043L24.0058 26.3043L8.80581 41.4043ZM14.8212 24.4197L9.05201 18.6504C7.40587 17.0043 6.55396 15.0466 6.49626 12.7774C6.43856 10.5082 7.18791 8.51204 8.74431 6.78897L20.5673 18.6736L14.8212 24.4197Z" fill="currentColor"/>
</svg>