<svg width="33" height="32" viewBox="0 0 33 32" fill="none" xmlns="http://www.w3.org/2000/svg">
<g id="ic_search_fill_24">
<path id="Vector" fill-rule="evenodd" clip-rule="evenodd" d="M21.8752 19.5895C23.0422 18.0314 23.7334 16.0964 23.7334 14C23.7334 8.84534 19.5547 4.66666 14.4 4.66666C9.24539 4.66666 5.06671 8.84534 5.06671 14C5.06671 19.1547 9.24539 23.3333 14.4 23.3333C16.4965 23.3333 18.4315 22.6421 19.9896 21.4752L25.4573 26.9428C25.978 27.4635 26.8222 27.4635 27.3429 26.9428C27.8636 26.4221 27.8636 25.5779 27.3429 25.0572L21.8752 19.5895ZM21.0667 14C21.0667 17.6819 18.0819 20.6667 14.4 20.6667C10.7181 20.6667 7.73338 17.6819 7.73338 14C7.73338 10.3181 10.7181 7.33333 14.4 7.33333C18.0819 7.33333 21.0667 10.3181 21.0667 14Z" fill="#171C2B"/>
</g>
</svg>
