<svg xmlns="http://www.w3.org/2000/svg" viewBox="0 0 24 24" fill="none">
  <path fill-rule="evenodd" clip-rule="evenodd" d="M16.0768 15.0161C17.0453 13.8152 17.6251 12.2878 17.6251 10.625C17.6251 6.75901 14.4911 3.625 10.6251 3.625C6.75907 3.625 3.62506 6.75901 3.62506 10.625C3.62506 14.491 6.75907 17.625 10.6251 17.625C12.2879 17.625 13.8153 17.0452 15.0162 16.0768L19.0947 20.1553C19.3876 20.4482 19.8625 20.4482 20.1554 20.1553C20.4483 19.8624 20.4483 19.3876 20.1554 19.0947L16.0768 15.0161ZM16.1251 10.625C16.1251 13.6626 13.6626 16.125 10.6251 16.125C7.58749 16.125 5.12506 13.6626 5.12506 10.625C5.12506 7.58743 7.58749 5.125 10.6251 5.125C13.6626 5.125 16.1251 7.58743 16.1251 10.625Z" fill="currentColor"/>
</svg>