<svg width="25" height="24" viewBox="0 0 25 24" fill="none" xmlns="http://www.w3.org/2000/svg">
<g id="ic_siren_line_24">
<path id="Vector" d="M5.80772 19.5V18H7.34042L9.26732 11.5404C9.38144 11.1456 9.60003 10.8318 9.9231 10.5991C10.2462 10.3664 10.6051 10.2501 11 10.2501H13.9231C14.318 10.2501 14.6769 10.3664 15 10.5991C15.3231 10.8318 15.5417 11.1456 15.6558 11.5404L17.5827 18H19.1154V19.5H5.80772ZM8.92115 18H16.0019L14.2116 11.9712C14.1923 11.9007 14.1555 11.8462 14.101 11.8077C14.0465 11.7692 13.984 11.75 13.9135 11.75H11.0096C10.9391 11.75 10.8766 11.7692 10.8221 11.8077C10.7676 11.8462 10.7308 11.9007 10.7115 11.9712L8.92115 18ZM11.7116 7.94233V3.44238H13.2115V7.94233H11.7116ZM17.4115 10.3116L16.3423 9.24236L19.5365 6.07316L20.5807 7.11736L17.4115 10.3116ZM18.7116 14.9423V13.4424H23.2115V14.9423H18.7116ZM7.51155 10.3116L4.34235 7.11736L5.38655 6.07316L8.58075 9.24236L7.51155 10.3116ZM1.71155 14.9423V13.4424H6.21155V14.9423H1.71155Z" fill="#677389"/>
</g>
</svg>
