<svg width="48" height="48" viewBox="0 0 48 48" fill="none" xmlns="http://www.w3.org/2000/svg">
<path d="M36.034 11.3551C32.482 7.80311 26.1576 8.34154 21.9386 12.5605C17.7196 16.7795 17.1731 23.104 20.7332 26.6559C24.2851 30.2079 30.6096 29.6695 34.8286 25.4505C39.0476 21.2315 39.594 14.9071 36.034 11.3551Z" fill="#FFF8E9"/>
<path d="M33.8804 19.0055L35.3832 17.5028C35.568 17.3179 35.568 17.0126 35.3832 16.8197C35.1984 16.6349 34.893 16.6349 34.7001 16.8197L33.1973 18.3225L31.4696 16.5947L32.9723 15.0919C33.1572 14.9071 33.1572 14.6017 32.9723 14.4088C32.7875 14.224 32.4821 14.224 32.2893 14.4088L30.7865 15.9116L29.0587 14.1838L30.5615 12.6811C30.7463 12.4962 30.7463 12.1909 30.5615 11.998C30.3767 11.8132 30.0713 11.8132 29.8784 11.998L28.3757 13.5008L26.8729 11.998C26.6881 11.8132 26.3827 11.8132 26.1898 11.998C26.005 12.1828 26.005 12.4882 26.1898 12.6811L27.6926 14.1838L25.9648 15.9116L24.462 14.4088C24.2772 14.224 23.9718 14.224 23.779 14.4088C23.5941 14.5937 23.5941 14.8991 23.779 15.0919L25.2817 16.5947L23.554 18.3225L22.0512 16.8197C21.8664 16.6349 21.561 16.6349 21.3681 16.8197C21.1833 17.0045 21.1833 17.3099 21.3681 17.5028L22.8709 19.0055L21.3681 20.5083C21.1833 20.6931 21.1833 20.9985 21.3681 21.1914C21.4645 21.2878 21.5851 21.336 21.7056 21.336C21.8262 21.336 21.9548 21.2878 22.0432 21.1914L23.5459 19.6886L25.2737 21.4164L23.7709 22.9191C23.5861 23.104 23.5861 23.4094 23.7709 23.6022C23.8674 23.6987 23.9879 23.7469 24.1084 23.7469C24.229 23.7469 24.3576 23.6987 24.446 23.6022L25.9487 22.0995L27.6765 23.8272L26.1737 25.33C25.9889 25.5148 25.9889 25.8202 26.1737 26.0131C26.2702 26.1095 26.3907 26.1577 26.5113 26.1577C26.6318 26.1577 26.7604 26.1095 26.8488 26.0131L28.3515 24.5103L29.8543 26.0131C29.9507 26.1095 30.0713 26.1577 30.1918 26.1577C30.3124 26.1577 30.4409 26.1095 30.5293 26.0131C30.7142 25.8282 30.7142 25.5229 30.5293 25.33L29.0266 23.8272L30.7544 22.0995L32.2571 23.6022C32.3535 23.6987 32.4741 23.7469 32.5946 23.7469C32.7152 23.7469 32.8438 23.6987 32.9322 23.6022C33.117 23.4174 33.117 23.112 32.9322 22.9191L31.4294 21.4164L33.1572 19.6886L34.6599 21.1914C34.7564 21.2878 34.8769 21.336 34.9974 21.336C35.118 21.336 35.2466 21.2878 35.335 21.1914C35.5198 21.0065 35.5198 20.7012 35.335 20.5083L33.8322 19.0055H33.8804ZM28.3757 14.8669L30.1034 16.5947L28.3757 18.3225L26.6479 16.5947L28.3757 14.8669ZM24.237 19.0055L25.9648 17.2778L27.6926 19.0055L25.9648 20.7333L24.237 19.0055ZM28.3757 23.1442L26.6479 21.4164L28.3757 19.6886L30.1034 21.4164L28.3757 23.1442ZM30.7865 20.7333L29.0587 19.0055L30.7865 17.2778L32.5143 19.0055L30.7865 20.7333Z" fill="#FFDE7E"/>
<path d="M37.7781 9.61121C33.2538 5.08685 25.3623 5.63331 20.1789 10.8166C17.7038 13.2998 16.2894 16.4018 15.976 19.4555C15.976 19.4877 15.968 19.5118 15.968 19.5439C15.9359 19.8654 15.9278 20.1868 15.9117 20.5002C15.6626 23.6424 14.7304 29.7257 12.2231 32.233L13.4045 33.4143L13.967 33.9769L15.1483 35.1582C17.6556 32.6509 23.7309 31.7026 26.8811 31.4696C27.0659 31.4615 27.2427 31.4615 27.4276 31.4374L27.8454 31.4053H27.9178C30.9796 31.0999 34.0815 29.6775 36.5566 27.1943C38.0192 25.7318 39.1041 24.0602 39.8193 22.3003C41.6435 17.8322 41.0167 12.8498 37.7701 9.61121H37.7781ZM15.534 31.8473C16.4421 30.2481 17.0609 28.3515 17.4868 26.5273C17.9047 27.2024 18.403 27.8372 18.9816 28.4158C19.5602 28.9944 20.195 29.4846 20.8701 29.8945C19.0458 30.3284 17.1413 30.9472 15.5421 31.8473H15.534ZM34.8289 25.4585C32.7957 27.4836 30.2724 28.6569 27.8133 28.9462C27.7731 28.9462 27.7088 28.9462 27.6124 28.9543C27.4195 28.9623 27.1142 28.9784 26.7204 29.0105C24.4622 29.0185 22.3246 28.2551 20.7415 26.664C19.1503 25.0728 18.3869 22.9352 18.3949 20.685C18.4351 20.0904 18.4592 19.6966 18.4592 19.5761C18.7485 17.109 19.9218 14.5936 21.9469 12.5685C26.1659 8.34954 32.4903 7.81111 36.0423 11.3631C38.646 13.9668 39.0479 18.0572 37.4165 21.7297C36.8218 23.0638 35.97 24.3335 34.8369 25.4585H34.8289Z" fill="#FCCE1D"/>
<path d="M13.6096 31.8401L15.5416 33.7721C15.9962 34.2267 15.9962 34.9654 15.5416 35.42L10.8082 40.1535C9.81942 41.1422 8.21697 41.1422 7.22823 40.1535C6.23949 39.1647 6.23949 37.5623 7.22823 36.5735L11.9617 31.8401C12.4163 31.3855 13.155 31.3855 13.6096 31.8401Z" fill="#F58D06"/>
<path d="M41.4506 36.9181C41.4345 36.9904 41.4185 37.0628 41.4104 37.1351C41.2497 37.9467 40.9202 38.6861 40.438 39.3049C39.3049 40.8157 37.3843 41.6514 35.3913 41.346C35.1342 41.3059 34.877 41.2496 34.644 41.1692C34.2823 41.0648 33.9368 40.9201 33.6153 40.7433C31.7349 39.6906 30.6179 37.553 30.9554 35.3028C31.4054 32.4098 34.1216 30.4249 37.0146 30.8749C39.9077 31.3249 41.9006 34.0331 41.4506 36.9262V36.9181Z" fill="#FFB200"/>
<path d="M40.9681 38.429C39.9797 40.4702 37.7376 41.7158 35.391 41.3541C34.941 41.2898 34.5151 41.1613 34.1133 40.9925C36.0821 40.221 36.3795 38.1718 35.5276 36.6208C34.0972 34.0171 36.0018 31.4054 38.6055 32.6429C40.8235 33.6957 41.4021 36.1387 40.9681 38.437V38.429Z" fill="#FFB200"/>
<path d="M41.4103 37.135C41.2496 37.9467 40.9201 38.686 40.4379 39.3048C41.113 37.0949 40.9281 34.4429 38.8709 33.1571C38.1235 32.675 37.1913 32.4821 36.4681 32.8598C34.9894 33.6393 35.2787 35.5921 36.0422 36.8297C36.5645 38.0512 36.452 39.5941 35.4555 40.5906C35.2144 40.8317 34.9332 41.0246 34.6439 41.1772C34.2822 41.0728 33.9367 40.9281 33.6152 40.7513C34.9171 40.3656 35.8814 39.2325 35.5439 37.7378C35.3189 36.8056 34.6519 35.9698 34.676 34.9572C34.5555 32.3776 37.2074 31.1561 39.2164 32.6027C40.8076 33.6072 41.4344 35.3591 41.4023 37.1431L41.4103 37.135Z" fill="#FFE79D"/>
</svg>
