<svg xmlns="http://www.w3.org/2000/svg" width="24" height="24" viewBox="0 0 24 24" fill="none">
  <path fill-rule="evenodd" clip-rule="evenodd" d="M11.9392 2.25C12.3534 2.25 12.6892 2.58579 12.6892 3V5C12.6892 5.41421 12.3534 5.75 11.9392 5.75C11.525 5.75 11.1892 5.41421 11.1892 5V3C11.1892 2.58579 11.525 2.25 11.9392 2.25Z" fill="#DF2C22"/>
  <path fill-rule="evenodd" clip-rule="evenodd" d="M5.33002 4.92548C5.62291 4.63259 6.09779 4.63259 6.39068 4.92548L7.8049 6.33969C8.09779 6.63259 8.09779 7.10746 7.8049 7.40035C7.512 7.69325 7.03713 7.69325 6.74424 7.40035L5.33002 5.98614C5.03713 5.69325 5.03713 5.21837 5.33002 4.92548Z" fill="#DF2C22"/>
  <path fill-rule="evenodd" clip-rule="evenodd" d="M18.9446 4.92548C18.6517 4.63259 18.1769 4.63259 17.884 4.92548L16.4698 6.33969C16.1769 6.63259 16.1769 7.10746 16.4698 7.40035C16.7627 7.69325 17.2375 7.69325 17.5304 7.40035L18.9446 5.98614C19.2375 5.69325 19.2375 5.21837 18.9446 4.92548Z" fill="#DF2C22"/>
  <path fill-rule="evenodd" clip-rule="evenodd" d="M2.25 11C2.25 10.5858 2.58579 10.25 3 10.25H5C5.41421 10.25 5.75 10.5858 5.75 11C5.75 11.4142 5.41421 11.75 5 11.75H3C2.58579 11.75 2.25 11.4142 2.25 11Z" fill="#DF2C22"/>
  <path fill-rule="evenodd" clip-rule="evenodd" d="M18.25 11C18.25 10.5858 18.5858 10.25 19 10.25H21C21.4142 10.25 21.75 10.5858 21.75 11C21.75 11.4142 21.4142 11.75 21 11.75H19C18.5858 11.75 18.25 11.4142 18.25 11Z" fill="#DF2C22"/>
  <path d="M7.44917 12.1489C7.66684 9.79813 9.63916 8 12 8C14.3608 8 16.3332 9.79813 16.5508 12.1489L16.9439 16.3941C16.974 16.7193 16.7181 17 16.3915 17H7.60854C7.28193 17 7.02599 16.7193 7.05611 16.3941L7.44917 12.1489Z" fill="#DF2C22"/>
  <path d="M5.54415 19.3675C5.81638 18.5509 6.58066 18 7.44152 18H16.5585C17.4193 18 18.1836 18.5509 18.4558 19.3675L18.5613 19.6838C18.7771 20.3313 18.2951 21 17.6126 21H6.38743C5.70487 21 5.2229 20.3313 5.43874 19.6838L5.54415 19.3675Z" fill="#DF2C22"/>
</svg>
