<svg width="48" height="48" viewBox="0 0 48 48" fill="none" xmlns="http://www.w3.org/2000/svg">
<path d="M36.7736 9.87641V34.2822H35.8173V38.6137H36.7736V38.6298C36.7736 39.2727 36.2432 39.787 35.6083 39.787H14.9072C12.9383 39.787 11.3311 38.2441 11.2427 36.2993C11.2427 36.2431 11.2427 36.1788 11.2427 36.1145V12.2471C11.2427 9.78801 13.2356 7.79504 15.7027 7.79504H34.7083C35.8655 7.79504 36.7896 8.7192 36.7896 9.87641H36.7736Z" fill="#FCCE1D"/>
<path d="M16.1847 7.79504V39.779H14.8989C12.93 39.779 11.3228 38.236 11.2344 36.2913C11.2344 36.235 11.2344 36.1707 11.2344 36.1064V12.2471C11.2344 9.78801 13.2273 7.79504 15.6944 7.79504H16.1927H16.1847Z" fill="#FFB200"/>
<path d="M14.8426 38.6218C13.6452 38.6218 12.6729 37.6494 12.6729 36.452C12.6729 35.8493 12.922 35.3109 13.3077 34.9171C13.7015 34.5313 14.2399 34.2822 14.8426 34.2822H35.817V38.6137" fill="#FFE79D"/>
<path d="M19.7207 15.9116L33.2295 15.9116C33.4336 15.9116 33.5991 15.7461 33.5991 15.542V12.8097C33.5991 12.6055 33.4336 12.44 33.2295 12.44L19.7207 12.44C19.5165 12.44 19.351 12.6055 19.351 12.8097V15.542C19.351 15.7461 19.5165 15.9116 19.7207 15.9116Z" fill="#FFF8E9"/>
<path d="M20.2996 43.0818L18.7968 42.0532C18.6602 41.9568 18.4754 41.9568 18.3307 42.0532L16.828 43.0818C16.5547 43.2666 16.1851 43.0818 16.1851 42.7443V36.1948H20.9425V42.7443C20.9425 43.0738 20.5728 43.2666 20.2996 43.0818Z" fill="#F58D06"/>
</svg>
