<svg viewBox="0 0 48 48" fill="none" xmlns="http://www.w3.org/2000/svg">
<g id="ic_study_fill_48">
<path id="Vector" d="M24 44.2498C21.6769 42.2011 19.0615 40.612 16.1539 39.4826C13.2462 38.3531 10.1949 37.7371 7 37.6345V17.2884C10.2128 17.3782 13.2827 18.0474 16.2096 19.2961C19.1365 20.5449 21.7333 22.2167 24 24.3115C26.2666 22.2167 28.8634 20.5449 31.7903 19.2961C34.7172 18.0474 37.7871 17.3782 40.9999 17.2884V37.6345C37.7845 37.7371 34.7281 38.3531 31.8307 39.4826C28.9333 40.612 26.323 42.2011 24 44.2498ZM24 18.2115C22.0051 18.2115 20.3013 17.505 18.8885 16.0922C17.4756 14.6794 16.7692 12.9756 16.7692 10.9807C16.7692 8.98588 17.4756 7.28205 18.8885 5.86925C20.3013 4.45641 22.0051 3.75 24 3.75C25.9948 3.75 27.6987 4.45641 29.1115 5.86925C30.5243 7.28205 31.2307 8.98588 31.2307 10.9807C31.2307 12.9756 30.5243 14.6794 29.1115 16.0922C27.6987 17.505 25.9948 18.2115 24 18.2115Z" fill="currentColor"/>
</g>
</svg>
