<svg width="24" height="24" viewBox="0 0 24 24" fill="none" xmlns="http://www.w3.org/2000/svg">
<g id="ic_settings_line_24">
<path id="Vector" d="M9.69392 21.5L9.31314 18.4538C9.04519 18.3641 8.77051 18.2384 8.48909 18.0769C8.20768 17.9153 7.95607 17.7422 7.73427 17.5576L4.91312 18.7499L2.60547 14.75L5.04584 12.9058C5.02276 12.757 5.00641 12.6077 4.99679 12.4577C4.98718 12.3077 4.98237 12.1583 4.98237 12.0096C4.98237 11.8673 4.98718 11.7227 4.99679 11.5759C5.00641 11.4291 5.02276 11.2686 5.04584 11.0942L2.60547 9.24998L4.91312 5.26925L7.72464 6.45195C7.96568 6.26092 8.22305 6.08623 8.49677 5.9279C8.7705 5.76955 9.03942 5.6423 9.30352 5.54615L9.69392 2.5H14.3092L14.69 5.55578C14.99 5.66474 15.2615 5.79198 15.5044 5.9375C15.7474 6.08302 15.9926 6.2545 16.24 6.45195L19.09 5.26925L21.3977 9.24998L18.9188 11.123C18.9547 11.2846 18.9743 11.4355 18.9775 11.5759C18.9807 11.7163 18.9823 11.8577 18.9823 12C18.9823 12.1359 18.9791 12.274 18.9727 12.4144C18.9663 12.5548 18.9432 12.7154 18.9034 12.8962L21.3631 14.75L19.0554 18.7499L16.24 17.548C15.9926 17.7455 15.74 17.9201 15.4823 18.0721C15.2246 18.224 14.9605 18.348 14.69 18.4442L14.3092 21.5H9.69392ZM11.0016 20H12.9669L13.3266 17.3211C13.8368 17.1878 14.3032 16.9984 14.7256 16.7529C15.148 16.5074 15.5554 16.1917 15.9477 15.8058L18.4323 16.85L19.4169 15.15L17.2477 13.5154C17.3311 13.2564 17.3878 13.0025 17.4179 12.7538C17.448 12.5051 17.4631 12.2538 17.4631 12C17.4631 11.7397 17.448 11.4884 17.4179 11.2461C17.3878 11.0038 17.3311 10.7564 17.2477 10.5038L19.4362 8.84998L18.4516 7.14998L15.9381 8.2096C15.6035 7.8519 15.2025 7.53588 14.7352 7.26153C14.2679 6.98716 13.7951 6.79293 13.3169 6.67883L13.0016 3.99998H11.0169L10.6862 6.6692C10.1759 6.78972 9.70477 6.97433 9.27272 7.22305C8.84067 7.47177 8.42849 7.79228 8.03619 8.1846L5.55157 7.14998L4.56694 8.84998L6.72657 10.4596C6.64324 10.6968 6.5849 10.9436 6.55157 11.2C6.51824 11.4564 6.50157 11.7263 6.50157 12.0096C6.50157 12.2699 6.51824 12.525 6.55157 12.775C6.5849 13.025 6.64003 13.2718 6.71694 13.5154L4.56694 15.15L5.55157 16.85L8.02657 15.8C8.40605 16.1897 8.81182 16.509 9.24387 16.7577C9.67592 17.0064 10.1535 17.1974 10.6766 17.3308L11.0016 20ZM12.0131 15C12.8451 15 13.5532 14.708 14.1371 14.124C14.7211 13.54 15.0131 12.832 15.0131 12C15.0131 11.1679 14.7211 10.4599 14.1371 9.87595C13.5532 9.29198 12.8451 9 12.0131 9C11.1708 9 10.4602 9.29198 9.88139 9.87595C9.30256 10.4599 9.01314 11.1679 9.01314 12C9.01314 12.832 9.30256 13.54 9.88139 14.124C10.4602 14.708 11.1708 15 12.0131 15Z" fill="#171C2B"/>
</g>
</svg>
