<svg xmlns="http://www.w3.org/2000/svg" viewBox="0 0 24 24" fill="none">
  <path fill-rule="evenodd" clip-rule="evenodd" d="M12.0015 16C14.2106 16 16.0015 14.2091 16.0015 12C16.0015 9.79086 14.2106 8 12.0015 8C9.79233 8 8.00146 9.79086 8.00146 12C8.00146 14.2091 9.79233 16 12.0015 16ZM14.5015 12C14.5015 13.3807 13.3822 14.5 12.0015 14.5C10.6208 14.5 9.50146 13.3807 9.50146 12C9.50146 10.6193 10.6208 9.5 12.0015 9.5C13.3822 9.5 14.5015 10.6193 14.5015 12Z" fill="currentColor"/>
  <path fill-rule="evenodd" clip-rule="evenodd" d="M9.28636 3.50585C9.4098 2.6418 10.1498 2 11.0226 2H12.9803C13.8532 2 14.5932 2.6418 14.7166 3.50585C14.8066 4.13602 15.2389 4.65437 15.7989 4.95697C15.935 5.0305 16.0687 5.10786 16.1999 5.1889C16.7421 5.52384 17.4079 5.63934 17.9994 5.40193C18.8098 5.07664 19.7361 5.39677 20.1727 6.15304L21.1505 7.84654C21.5873 8.60315 21.4013 9.56583 20.7141 10.1053C20.2134 10.4983 19.98 11.1315 19.9982 11.7677C20.0004 11.8448 20.0015 11.9223 20.0015 12C20.0015 12.0777 20.0004 12.1552 19.9982 12.2324C19.98 12.8687 20.2134 13.5019 20.7141 13.8949C21.4013 14.4343 21.5873 15.397 21.1505 16.1536L20.1728 17.847C19.7361 18.6034 18.8098 18.9235 17.9993 18.5982C17.4078 18.3608 16.742 18.4763 16.1997 18.8112C16.0686 18.8922 15.9349 18.9695 15.7989 19.043C15.2389 19.3456 14.8066 19.864 14.7166 20.4941C14.5932 21.3582 13.8532 22 12.9803 22H11.0226C10.1498 22 9.4098 21.3582 9.28636 20.4941C9.19634 19.864 8.76411 19.3456 8.20407 19.043C8.06804 18.9695 7.93439 18.8922 7.80325 18.8112C7.261 18.4763 6.59518 18.3608 6.00369 18.5982C5.19321 18.9235 4.26686 18.6034 3.8302 17.847L2.85251 16.1536C2.41568 15.397 2.60167 14.4343 3.2889 13.8949C3.78958 13.5019 4.02295 12.8687 4.0048 12.2324C4.00259 12.1552 4.00149 12.0777 4.00149 12C4.00149 11.9223 4.00259 11.8449 4.00479 11.7677C4.02294 11.1315 3.78956 10.4983 3.2889 10.1053C2.60167 9.56583 2.41568 8.60315 2.85251 7.84654L3.83025 6.15304C4.26688 5.39677 5.19317 5.07664 6.0036 5.40194C6.59505 5.63934 7.26085 5.52384 7.80306 5.1889C7.93426 5.10786 8.06798 5.0305 8.20407 4.95697C8.76411 4.65437 9.19634 4.13602 9.28636 3.50585ZM11.0226 3.5H12.9803C13.1067 3.5 13.2138 3.59291 13.2317 3.71798C13.4031 4.91789 14.2042 5.80028 15.0859 6.27665C15.1964 6.33636 15.305 6.3992 15.4116 6.46505C16.266 6.99281 17.4322 7.24591 18.5581 6.79398C18.6758 6.74675 18.8103 6.79323 18.8737 6.90304L19.8514 8.59654C19.915 8.70668 19.8879 8.84683 19.7879 8.92536C18.8354 9.67305 18.4702 10.8072 18.4988 11.8104C18.5006 11.8734 18.5015 11.9366 18.5015 12C18.5015 12.0635 18.5006 12.1267 18.4988 12.1897C18.4702 13.1929 18.8353 14.3271 19.7879 15.0748C19.8879 15.1533 19.915 15.2935 19.8514 15.4036L18.8737 17.097C18.8103 17.2069 18.6758 17.2534 18.558 17.2061C17.4321 16.7542 16.2658 17.0073 15.4114 17.535C15.3049 17.6009 15.1963 17.6637 15.0859 17.7233C14.2042 18.1997 13.4031 19.0821 13.2317 20.282C13.2138 20.4071 13.1067 20.5 12.9803 20.5H11.0226C10.8963 20.5 10.7892 20.4071 10.7713 20.282C10.5999 19.0821 9.79877 18.1997 8.91711 17.7233C8.80665 17.6637 8.69808 17.6009 8.59153 17.535C7.73714 17.0073 6.57088 16.7542 5.44494 17.2061C5.32722 17.2534 5.19266 17.2069 5.12923 17.097L4.15155 15.4036C4.08795 15.2935 4.11503 15.1533 4.21508 15.0748C5.16763 14.3271 5.53281 13.1929 5.50419 12.1897C5.50239 12.1267 5.50149 12.0635 5.50149 12C5.50149 11.9366 5.50239 11.8734 5.50418 11.8104C5.53279 10.8072 5.16761 9.67305 4.21507 8.92536C4.11503 8.84683 4.08795 8.70668 4.15154 8.59654L5.12929 6.90304C5.19268 6.79323 5.32718 6.74675 5.44485 6.79398C6.57076 7.24591 7.73701 6.99281 8.59137 6.46505C8.69798 6.3992 8.80659 6.33636 8.91711 6.27665C9.79877 5.80028 10.5999 4.91789 10.7713 3.71798C10.7892 3.59291 10.8963 3.5 11.0226 3.5Z" fill="currentColor"/>
</svg>