<svg width="48" height="48" viewBox="0 0 48 48" fill="none" xmlns="http://www.w3.org/2000/svg">
<path d="M22.9674 27.7248C22.9674 33.2778 18.7725 36.9101 13.6053 36.9101C12.1106 36.9101 10.6882 36.5967 9.42649 36.0181C8.13267 36.8297 6.27631 37.778 5.46466 37.1753C4.68515 36.5967 5.81022 33.5992 5.9629 33.2135C4.86998 31.7348 4.24316 29.8785 4.24316 27.7248C4.24316 22.1718 8.43804 18.5394 13.6053 18.5394C18.7725 18.5394 22.9674 22.1718 22.9674 27.7248Z" fill="#FFB200"/>
<path d="M22.9675 27.7247C22.9675 32.7312 19.5521 36.1787 15.092 36.7895C12.2231 33.3902 10.9293 28.8819 12.0062 23.9156C12.4401 21.9146 13.1955 20.1225 14.2241 18.5635C19.1101 18.8287 22.9755 22.3887 22.9755 27.7247H22.9675Z" fill="#F58D06"/>
<path d="M39.7709 32.5786C40.1647 34.017 40.8959 37.2395 39.8995 37.8824C38.686 38.6619 36.1546 37.1833 34.3304 35.8895C32.5544 36.5163 30.5856 36.8377 28.5283 36.8377C20.1064 36.8377 13.2837 31.349 13.2837 22.9191C13.2837 14.4892 20.0984 8.55847 28.5283 8.55847C36.9582 8.55847 43.7568 14.5052 43.7568 22.9191C43.7568 26.8809 42.2621 30.1918 39.7789 32.5786H39.7709Z" fill="#FFDE7E"/>
<path d="M22.9595 24.6469C23.9093 24.6469 24.6792 23.8769 24.6792 22.9271C24.6792 21.9774 23.9093 21.2074 22.9595 21.2074C22.0097 21.2074 21.2397 21.9774 21.2397 22.9271C21.2397 23.8769 22.0097 24.6469 22.9595 24.6469Z" fill="#FFA200"/>
<path d="M28.5205 24.6469C29.4703 24.6469 30.2403 23.8769 30.2403 22.9271C30.2403 21.9774 29.4703 21.2074 28.5205 21.2074C27.5707 21.2074 26.8008 21.9774 26.8008 22.9271C26.8008 23.8769 27.5707 24.6469 28.5205 24.6469Z" fill="#FFA200"/>
<path d="M34.0733 24.6469C35.023 24.6469 35.793 23.8769 35.793 22.9271C35.793 21.9774 35.023 21.2074 34.0733 21.2074C33.1235 21.2074 32.3535 21.9774 32.3535 22.9271C32.3535 23.8769 33.1235 24.6469 34.0733 24.6469Z" fill="#FFA200"/>
</svg>
