<svg width=auto height=auto viewBox="0 0 24 24" fill="none" xmlns="http://www.w3.org/2000/svg">
<g id="ic_visibility_off_line_24">
<path id="Vector" d="M15.7731 12.9731L14.6501 11.85C14.8001 11.0218 14.5639 10.2772 13.9414 9.61635C13.319 8.95545 12.5552 8.7 11.6501 8.85L10.527 7.72695C10.7527 7.62567 10.9841 7.54971 11.2212 7.49908C11.4584 7.44843 11.718 7.4231 12.0001 7.4231C13.1347 7.4231 14.0978 7.81893 14.8895 8.6106C15.6811 9.40227 16.077 10.3654 16.077 11.5C16.077 11.7821 16.0517 12.0449 16.001 12.2885C15.9504 12.532 15.8744 12.7602 15.7731 12.9731ZM18.9539 16.0846L17.8501 15.05C18.4834 14.5667 19.0459 14.0375 19.5376 13.4625C20.0292 12.8875 20.4501 12.2333 20.8001 11.5C19.9667 9.81667 18.7709 8.47917 17.2126 7.4875C15.6542 6.49583 13.9167 6 12.0001 6C11.5167 6 11.0417 6.03333 10.5751 6.1C10.1084 6.16667 9.65007 6.26667 9.20007 6.4L8.03472 5.23465C8.66677 4.98337 9.31228 4.79811 9.97125 4.67888C10.6302 4.55964 11.3065 4.50003 12.0001 4.50003C14.3437 4.50003 16.4571 5.14618 18.3404 6.43848C20.2238 7.73079 21.5975 9.41797 22.4616 11.5C22.0911 12.3936 21.6125 13.2276 21.026 14.0019C20.4395 14.7763 19.7488 15.4705 18.9539 16.0846ZM19.7616 21.8692L15.7155 17.8538C15.2027 18.0436 14.6344 18.1987 14.0107 18.3192C13.3869 18.4397 12.7167 18.5 12.0001 18.5C9.65009 18.5 7.53664 17.8538 5.65972 16.5615C3.78281 15.2692 2.40909 13.582 1.53857 11.5C1.90781 10.6167 2.38473 9.79263 2.96935 9.02788C3.55397 8.26314 4.19756 7.60001 4.90012 7.03848L2.13087 4.23848L3.18472 3.18465L20.8154 20.8154L19.7616 21.8692ZM5.95395 8.09228C5.42575 8.51279 4.91197 9.01825 4.4126 9.60865C3.91323 10.199 3.50906 10.8295 3.20007 11.5C4.03341 13.1833 5.22924 14.5208 6.78757 15.5125C8.34591 16.5042 10.0834 17 12.0001 17C12.4552 17 12.9084 16.9615 13.3597 16.8846C13.811 16.8077 14.1937 16.7282 14.5078 16.6462L13.2424 15.35C13.0719 15.4192 12.8744 15.4743 12.6501 15.5154C12.4257 15.5564 12.2091 15.5769 12.0001 15.5769C10.8655 15.5769 9.90234 15.1811 9.11067 14.3894C8.31901 13.5977 7.92317 12.6346 7.92317 11.5C7.92317 11.2974 7.94369 11.0856 7.98472 10.8644C8.02576 10.6433 8.08088 10.441 8.1501 10.2577L5.95395 8.09228Z" fill="#141B2E"/>
</g>
</svg>
