<svg width=auto height=auto viewBox="0 0 24 24" fill="none" xmlns="http://www.w3.org/2000/svg">
<g id="ic_visibility_line_24">
<path id="Vector" d="M12.0023 15.5769C13.1354 15.5769 14.0978 15.1803 14.8895 14.3871C15.6811 13.594 16.077 12.6308 16.077 11.4977C16.077 10.3646 15.6804 9.40227 14.8872 8.6106C14.094 7.81893 13.1309 7.4231 11.9978 7.4231C10.8647 7.4231 9.90234 7.81968 9.11067 8.61285C8.31901 9.40603 7.92317 10.3692 7.92317 11.5023C7.92317 12.6354 8.31976 13.5977 9.11293 14.3894C9.90611 15.1811 10.8693 15.5769 12.0023 15.5769ZM12.0001 14.2C11.2501 14.2 10.6126 13.9375 10.0876 13.4125C9.56257 12.8875 9.30007 12.25 9.30007 11.5C9.30007 10.75 9.56257 10.1125 10.0876 9.5875C10.6126 9.0625 11.2501 8.8 12.0001 8.8C12.7501 8.8 13.3876 9.0625 13.9126 9.5875C14.4376 10.1125 14.7001 10.75 14.7001 11.5C14.7001 12.25 14.4376 12.8875 13.9126 13.4125C13.3876 13.9375 12.7501 14.2 12.0001 14.2ZM12.0014 18.5C9.70183 18.5 7.60651 17.8657 5.71547 16.5971C3.82446 15.3285 2.43216 13.6295 1.53857 11.5C2.43216 9.37052 3.82401 7.67148 5.71412 6.4029C7.60422 5.13432 9.69908 4.50002 11.9987 4.50002C14.2983 4.50002 16.3936 5.13432 18.2847 6.4029C20.1757 7.67148 21.568 9.37052 22.4616 11.5C21.568 13.6295 20.1761 15.3285 18.286 16.5971C16.3959 17.8657 14.3011 18.5 12.0014 18.5ZM12.0001 17C13.8834 17 15.6126 16.5042 17.1876 15.5125C18.7626 14.5208 19.9667 13.1833 20.8001 11.5C19.9667 9.81667 18.7626 8.47917 17.1876 7.4875C15.6126 6.49583 13.8834 6 12.0001 6C10.1167 6 8.38757 6.49583 6.81257 7.4875C5.23757 8.47917 4.03341 9.81667 3.20007 11.5C4.03341 13.1833 5.23757 14.5208 6.81257 15.5125C8.38757 16.5042 10.1167 17 12.0001 17Z" fill="#141B2E"/>
</g>
</svg>
