<svg width="19" height="19" viewBox="0 0 19 19" fill="none" xmlns="http://www.w3.org/2000/svg">
<g id="symbol_apple">
<path id="&#239;&#163;&#191;" d="M9.72266 4.38461C10.5547 4.38461 11.5977 3.80483 12.2188 3.03179C12.7812 2.33121 13.1914 1.35283 13.1914 0.374443C13.1914 0.241576 13.1797 0.108709 13.1562 0C12.2305 0.0362365 11.1172 0.640177 10.4492 1.44946C9.92188 2.06548 9.44141 3.03179 9.44141 4.02225C9.44141 4.1672 9.46484 4.31214 9.47656 4.36046C9.53516 4.37254 9.62891 4.38461 9.72266 4.38461ZM6.79297 19C7.92969 19 8.43359 18.2149 9.85156 18.2149C11.293 18.2149 11.6094 18.9758 12.875 18.9758C14.1172 18.9758 14.9492 17.7921 15.7344 16.6325C16.6133 15.3039 16.9766 13.9994 17 13.939C16.918 13.9148 14.5391 12.9123 14.5391 10.0979C14.5391 7.65798 16.4141 6.5588 16.5195 6.47425C15.2773 4.63827 13.3906 4.58996 12.875 4.58996C11.4805 4.58996 10.3438 5.45963 9.62891 5.45963C8.85547 5.45963 7.83594 4.63827 6.62891 4.63827C4.33203 4.63827 2 6.59504 2 10.2912C2 12.5861 2.86719 15.014 3.93359 16.5842C4.84766 17.9129 5.64453 19 6.79297 19Z" fill="black"/>
</g>
</svg>
